{
.appVersion = "983";
DisplayStrings = (
"vertrag craine screw revolte"
);
copyright = "Copyright © 2017 by Nina Botthof. All rights reserved.";
date = "2017-06-21 10:27:15 +0000";
designer = "Nina Botthof";
familyName = Avon;
fontMaster = (
{
ascender = 716;
capHeight = 670;
descender = -288;
guideLines = (
{
position = "{317, 513}";
},
{
position = "{465, 209}";
},
{
position = "{234, -158}";
}
);
id = "E3DDE12C-3A5F-4385-A6FD-0C1D1DE2DDC5";
xHeight = 452;
}
);
glyphs = (
{
glyphname = a;
lastChange = "2017-07-07 17:02:35 +0000";
layers = (
{
components = (
{
name = _part.bauch;
transform = "{1, 0, 0, 1, 9, 0}";
}
);
hints = (
{
origin = "{0, 0}";
target = "{0, 1}";
type = Cap;
name = _cap.untenneu;
},
{
origin = "{0, 2}";
target = "{0, 3}";
type = Cap;
name = _cap.knubbelneu;
}
);
layerId = "E3DDE12C-3A5F-4385-A6FD-0C1D1DE2DDC5";
paths = (
{
closed = 1;
nodes = (
"324 0 LINE",
"386 0 LINE",
"410 452 LINE",
"347 452 LINE"
);
}
);
width = 499;
}
);
leftMetricsKey = o;
unicode = 0061;
},
{
glyphname = b;
lastChange = "2017-07-07 16:45:21 +0000";
layers = (
{
components = (
{
name = _part.bauch;
transform = "{-1, 0, 0, -1, 492, 449}";
}
);
hints = (
{
origin = "{0, 0}";
target = "{0, 1}";
type = Cap;
name = _cap.knubbelneu;
},
{
origin = "{0, 2}";
target = "{0, 3}";
type = Cap;
name = _cap.obenneu;
}
);
layerId = "E3DDE12C-3A5F-4385-A6FD-0C1D1DE2DDC5";
paths = (
{
closed = 1;
nodes = (
"87 0 LINE",
"149 0 LINE",
"186 712 LINE",
"123 712 LINE"
);
}
);
width = 501;
}
);
rightMetricsKey = o;
unicode = 0062;
},
{
glyphname = c;
lastChange = "2017-07-07 17:22:07 +0000";
layers = (
{
background = {
paths = (
{
closed = 1;
nodes = (
"442 426 LINE",
"424 391 LINE",
"362 455 OFFCURVE",
"293 456 OFFCURVE",
"266 456 CURVE SMOOTH",
"120 456 OFFCURVE",
"43 325 OFFCURVE",
"43 181 CURVE SMOOTH",
"43 84 OFFCURVE",
"99 -6 OFFCURVE",
"203 -6 CURVE SMOOTH",
"260 -6 OFFCURVE",
"335 19 OFFCURVE",
"422 90 CURVE",
"379 36 LINE",
"359 128 LINE",
"404 100 LINE",
"340 68 OFFCURVE",
"294 56 OFFCURVE",
"256 56 CURVE SMOOTH",
"142 56 OFFCURVE",
"111 166 OFFCURVE",
"111 223 CURVE SMOOTH",
"111 315 OFFCURVE",
"152 409 OFFCURVE",
"239 409 CURVE SMOOTH",
"287 409 OFFCURVE",
"333 391 OFFCURVE",
"367 336 CURVE",
"321 332 LINE"
);
},
{
closed = 1;
nodes = (
"295 279 LINE",
"326 266 LINE",
"357 297 OFFCURVE",
"386 331 OFFCURVE",
"413 370 CURVE",
"411 403 LINE",
"355 428 LINE"
);
}
);
};
backgroundImage = {
crop = "{{0, 0}, {661, 1280}}";
imagePath = "../finale Skizzen/ce.jpg";
locked = "1";
transform = "{0.8404, 0, 0, 0.8404, -61, -568}";
};
layerId = "E3DDE12C-3A5F-4385-A6FD-0C1D1DE2DDC5";
paths = (
{
closed = 1;
nodes = (
"373 146 LINE",
"398 116 LINE",
"385 94 OFFCURVE",
"314 53 OFFCURVE",
"259 53 CURVE SMOOTH",
"149 53 OFFCURVE",
"108 156 OFFCURVE",
"108 235 CURVE SMOOTH",
"108 315 OFFCURVE",
"159 409 OFFCURVE",
"246 409 CURVE SMOOTH",
"294 409 OFFCURVE",
"326 375 OFFCURVE",
"347 332 CURVE",
"367 325 LINE",
"404 345 OFFCURVE",
"434 374 OFFCURVE",
"459 414 CURVE",
"441 379 LINE",
"376 461 OFFCURVE",
"304 456 OFFCURVE",
"273 456 CURVE SMOOTH",
"127 456 OFFCURVE",
"40 325 OFFCURVE",
"40 193 CURVE SMOOTH",
"40 84 OFFCURVE",
"106 -9 OFFCURVE",
"216 -9 CURVE SMOOTH",
"286 -9 OFFCURVE",
"375 48 OFFCURVE",
"412 89 CURVE",
"408 29 LINE"
);
}
);
width = 452;
}
);
leftMetricsKey = o;
unicode = 0063;
},
{
glyphname = d;
lastChange = "2017-07-07 16:46:38 +0000";
layers = (
{
background = {
paths = (
{
closed = 1;
nodes = (
"470 79 LINE",
"482 62 LINE",
"460 37 OFFCURVE",
"387 -2 OFFCURVE",
"343 -13 CURVE",
"322 9 LINE",
"331 173 OFFCURVE",
"330 388 OFFCURVE",
"330 653 CURVE",
"262 645 LINE",
"251 665 LINE",
"284 691 OFFCURVE",
"347 715 OFFCURVE",
"388 722 CURVE",
"410 698 LINE",
"388 658 OFFCURVE",
"387 73 OFFCURVE",
"390 52 CURVE"
);
},
{
closed = 1;
nodes = (
"300 202 OFFCURVE",
"257 100 OFFCURVE",
"229 -5 CURVE",
"204 -14 OFFCURVE",
"181 -11 OFFCURVE",
"154 -8 CURVE SMOOTH",
"82 0 OFFCURVE",
"28 84 OFFCURVE",
"41 187 CURVE SMOOTH",
"60 343 OFFCURVE",
"185 473 OFFCURVE",
"359 445 CURVE",
"369 369 LINE",
"131 513 OFFCURVE",
"36 128 OFFCURVE",
"183 51 CURVE",
"223 141 OFFCURVE",
"263 225 OFFCURVE",
"332 319 CURVE",
"334 276 LINE"
);
}
);
};
components = (
{
name = _part.bauch;
transform = "{1, 0, 0, 1, 9, 0}";
}
);
hints = (
{
origin = "{0, 0}";
target = "{0, 1}";
type = Cap;
name = _cap.untenneu;
},
{
origin = "{0, 2}";
target = "{0, 3}";
type = Cap;
name = _cap.obenneu;
}
);
layerId = "E3DDE12C-3A5F-4385-A6FD-0C1D1DE2DDC5";
paths = (
{
closed = 1;
nodes = (
"309 0 LINE",
"371 0 LINE",
"408 712 LINE",
"345 712 LINE"
);
}
);
width = 511;
}
);
leftMetricsKey = o;
unicode = 0064;
},
{
glyphname = e;
lastChange = "2017-07-07 17:04:28 +0000";
layers = (
{
background = {
components = (
{
name = _part.bauch;
transform = "{1, 0, 0, 1, 10, 0}";
}
);
paths = (
{
closed = 1;
nodes = (
"373 146 LINE",
"398 116 LINE",
"385 94 OFFCURVE",
"314 53 OFFCURVE",
"259 53 CURVE SMOOTH",
"149 53 OFFCURVE",
"108 156 OFFCURVE",
"108 235 CURVE SMOOTH",
"108 315 OFFCURVE",
"159 409 OFFCURVE",
"246 409 CURVE SMOOTH",
"294 409 OFFCURVE",
"326 375 OFFCURVE",
"347 332 CURVE",
"398 368 LINE",
"398 405 LINE",
"348 460 OFFCURVE",
"297 456 OFFCURVE",
"273 456 CURVE SMOOTH",
"127 456 OFFCURVE",
"40 325 OFFCURVE",
"40 193 CURVE SMOOTH",
"40 84 OFFCURVE",
"106 -9 OFFCURVE",
"216 -9 CURVE SMOOTH",
"286 -9 OFFCURVE",
"375 48 OFFCURVE",
"412 89 CURVE",
"408 29 LINE"
);
},
{
closed = 1;
nodes = (
"129 114 LINE",
"225 199 OFFCURVE",
"314 283 OFFCURVE",
"398 366 CURVE",
"398 392 LINE",
"370 413 LINE",
"106 136 LINE"
);
},
{
closed = 1;
nodes = (
"307 345 LINE",
"347 345 LINE",
"347 388 LINE",
"307 388 LINE"
);
}
);
};
backgroundImage = {
crop = "{{0, 0}, {661, 1280}}";
imagePath = "../finale Skizzen/ce.jpg";
locked = "1";
transform = "{0.9482, 0, 0, 0.9538, -37, -77}";
};
layerId = "E3DDE12C-3A5F-4385-A6FD-0C1D1DE2DDC5";
paths = (
{
closed = 1;
nodes = (
"353 146 LINE",
"378 116 LINE",
"365 94 OFFCURVE",
"294 53 OFFCURVE",
"239 53 CURVE SMOOTH",
"144 53 OFFCURVE",
"108 156 OFFCURVE",
"108 235 CURVE SMOOTH",
"108 315 OFFCURVE",
"152 409 OFFCURVE",
"226 409 CURVE SMOOTH",
"271 409 OFFCURVE",
"300 372 OFFCURVE",
"300 344 CURVE SMOOTH",
"300 302 OFFCURVE",
"164 193 OFFCURVE",
"98 146 CURVE",
"113 121 LINE",
"198 172 OFFCURVE",
"282 227 OFFCURVE",
"364 290 CURVE",
"371 308 OFFCURVE",
"374 326 OFFCURVE",
"374 344 CURVE SMOOTH",
"374 402 OFFCURVE",
"331 456 OFFCURVE",
"253 456 CURVE SMOOTH",
"120 456 OFFCURVE",
"40 325 OFFCURVE",
"40 193 CURVE SMOOTH",
"40 84 OFFCURVE",
"106 -9 OFFCURVE",
"216 -9 CURVE",
"269 5 OFFCURVE",
"355 48 OFFCURVE",
"392 89 CURVE",
"388 29 LINE"
);
}
);
width = 410;
}
);
leftMetricsKey = o;
unicode = 0065;
},
{
glyphname = f;
lastChange = "2017-07-07 16:34:55 +0000";
layers = (
{
background = {
paths = (
{
closed = 1;
nodes = (
"69 440 OFFCURVE",
"57 423 OFFCURVE",
"50 414 CURVE",
"67 399 LINE",
"129 405 LINE",
"292 404 LINE",
"308 413 OFFCURVE",
"323 421 OFFCURVE",
"335 436 CURVE",
"318 451 LINE",
"133 452 LINE",
"80 449 LINE"
);
},
{
closed = 1;
nodes = (
"137 -25 OFFCURVE",
"161 -19 OFFCURVE",
"178 -11 CURVE",
"171 130 OFFCURVE",
"175 173 OFFCURVE",
"175 429 CURVE SMOOTH",
"175 522 OFFCURVE",
"170 604 OFFCURVE",
"199 660 CURVE",
"241 669 OFFCURVE",
"305 674 OFFCURVE",
"354 625 CURVE",
"381 625 LINE",
"390 641 OFFCURVE",
"395 653 OFFCURVE",
"400 673 CURVE",
"348 727 OFFCURVE",
"247 733 OFFCURVE",
"160 676 CURVE",
"127 612 OFFCURVE",
"108 570 OFFCURVE",
"108 457 CURVE SMOOTH",
"108 203 OFFCURVE",
"115 188 OFFCURVE",
"101 -6 CURVE",
"123 -28 LINE"
);
}
);
};
backgroundImage = {
crop = "{{0, 0}, {757, 1280}}";
imagePath = "../finale Skizzen/fw.jpg";
locked = "1";
transform = "{1.0848, -0.0941, 0.0949, 1.0761, -405, -574}";
};
layerId = "E3DDE12C-3A5F-4385-A6FD-0C1D1DE2DDC5";
paths = (
{
closed = 1;
nodes = (
"208 582 OFFCURVE",
"237 670 OFFCURVE",
"299 670 CURVE SMOOTH",
"337 670 OFFCURVE",
"361 645 OFFCURVE",
"380 613 CURVE",
"400 606 LINE",
"432 626 OFFCURVE",
"458 655 OFFCURVE",
"483 695 CURVE",
"465 660 LINE",
"409 717 OFFCURVE",
"351 717 OFFCURVE",
"326 717 CURVE SMOOTH",
"205 717 OFFCURVE",
"145 619 OFFCURVE",
"136 492 CURVE SMOOTH",
"123 303 OFFCURVE",
"117 151 OFFCURVE",
"105 0 CURVE",
"137 -20 LINE",
"185 -3 LINE",
"183 228 OFFCURVE",
"186 313 OFFCURVE",
"204 534 CURVE SMOOTH"
);
},
{
closed = 1;
nodes = (
"69 440 OFFCURVE",
"57 423 OFFCURVE",
"50 414 CURVE",
"67 399 LINE",
"129 405 LINE",
"292 394 LINE",
"308 403 OFFCURVE",
"323 421 OFFCURVE",
"335 436 CURVE",
"318 451 LINE",
"133 452 LINE",
"80 449 LINE"
);
}
);
width = 361;
}
);
leftMetricsKey = n;
unicode = 0066;
},
{
glyphname = g;
lastChange = "2017-07-07 17:10:23 +0000";
layers = (
{
background = {
paths = (
{
closed = 1;
nodes = (
"383 131 OFFCURVE",
"394 270 OFFCURVE",
"402 369 CURVE",
"376 339 OFFCURVE",
"370 356 OFFCURVE",
"333 318 CURVE",
"264 221 OFFCURVE",
"236 167 OFFCURVE",
"189 60 CURVE",
"42 137 OFFCURVE",
"132 513 OFFCURVE",
"371 369 CURVE",
"408 433 LINE",
"209 495 OFFCURVE",
"66 366 OFFCURVE",
"46 196 CURVE SMOOTH",
"34 93 OFFCURVE",
"88 11 OFFCURVE",
"159 1 CURVE SMOOTH",
"187 -3 OFFCURVE",
"210 -4 OFFCURVE",
"234 5 CURVE",
"256 94 OFFCURVE",
"305 207 OFFCURVE",
"336 268 CURVE",
"363 317 OFFCURVE",
"359 266 OFFCURVE",
"375 296 CURVE SMOOTH",
"390 324 OFFCURVE",
"404 348 OFFCURVE",
"415 379 CURVE SMOOTH",
"429 420 OFFCURVE",
"419 452 OFFCURVE",
"379 467 CURVE",
"321 442 LINE",
"332 385 OFFCURVE",
"320 136 OFFCURVE",
"320 -54 CURVE SMOOTH",
"320 -132 OFFCURVE",
"305 -222 OFFCURVE",
"222 -222 CURVE SMOOTH",
"151 -222 OFFCURVE",
"90 -182 OFFCURVE",
"110 -67 CURVE",
"42 -100 LINE",
"22 -201 OFFCURVE",
"95 -271 OFFCURVE",
"193 -271 CURVE SMOOTH",
"315 -271 OFFCURVE",
"385 -179 OFFCURVE",
"384 -7 CURVE SMOOTH"
);
}
);
};
components = (
{
name = _part.bauch;
transform = "{1, 0, 0, 1, 13, 0}";
}
);
hints = (
{
origin = "{0, 2}";
target = "{0, 3}";
type = Cap;
name = _cap.knubbel;
}
);
layerId = "E3DDE12C-3A5F-4385-A6FD-0C1D1DE2DDC5";
paths = (
{
closed = 1;
nodes = (
"323 0 LINE",
"390 0 LINE",
"396 452 LINE",
"323 452 LINE"
);
},
{
closed = 1;
nodes = (
"110 -65 LINE",
"87 -168 OFFCURVE",
"150 -226 OFFCURVE",
"216 -222 CURVE SMOOTH",
"275 -222 OFFCURVE",
"323 -178 OFFCURVE",
"323 0 CURVE",
"390 0 LINE",
"379 -219 OFFCURVE",
"291 -269 OFFCURVE",
"202 -271 CURVE SMOOTH",
"132 -273 OFFCURVE",
"23 -227 OFFCURVE",
"42 -101 CURVE"
);
}
);
width = 467;
}
);
leftMetricsKey = o;
rightMetricsKey = n;
unicode = 0067;
},
{
glyphname = h;
lastChange = "2017-07-07 17:15:41 +0000";
layers = (
{
components = (
{
name = _part.bogen;
transform = "{1, 0, 0, 1, 39, 0}";
}
);
hints = (
{
origin = "{0, 0}";
target = "{0, 1}";
type = Cap;
name = _cap.knubbelneu;
},
{
origin = "{0, 2}";
target = "{0, 3}";
type = Cap;
name = _cap.obenneu;
}
);
layerId = "E3DDE12C-3A5F-4385-A6FD-0C1D1DE2DDC5";
paths = (
{
closed = 1;
nodes = (
"87 0 LINE",
"149 0 LINE",
"186 712 LINE",
"123 712 LINE"
);
}
);
width = 549;
}
);
rightMetricsKey = n;
unicode = 0068;
},
{
glyphname = i;
lastChange = "2017-07-07 17:19:23 +0000";
layers = (
{
anchors = (
{
name = top;
position = "{169, 452}";
}
);
background = {
paths = (
{
closed = 1;
nodes = (
"265 79 LINE",
"277 62 LINE",
"255 37 OFFCURVE",
"182 -2 OFFCURVE",
"138 -13 CURVE",
"117 9 LINE",
"126 173 OFFCURVE",
"129 298 OFFCURVE",
"129 403 CURVE",
"61 395 LINE",
"50 415 LINE",
"83 441 OFFCURVE",
"146 465 OFFCURVE",
"187 472 CURVE",
"209 448 LINE",
"187 408 OFFCURVE",
"182 73 OFFCURVE",
"185 52 CURVE"
);
},
{
closed = 1;
nodes = (
"116 590 LINE",
"135 570 LINE",
"159 576 OFFCURVE",
"183 586 OFFCURVE",
"206 600 CURVE",
"206 626 OFFCURVE",
"207 652 OFFCURVE",
"208 677 CURVE",
"188 698 LINE",
"164 692 OFFCURVE",
"140 683 OFFCURVE",
"116 668 CURVE"
);
}
);
};
components = (
{
name = dotaccentcomb;
transform = "{1, 0, 0, 1, 62, 0}";
}
);
hints = (
{
origin = "{0, 2}";
target = "{0, 3}";
type = Cap;
name = _cap.obenneukurz;
},
{
origin = "{0, 0}";
target = "{0, 1}";
type = Cap;
name = _cap.untenneu;
}
);
layerId = "E3DDE12C-3A5F-4385-A6FD-0C1D1DE2DDC5";
paths = (
{
closed = 1;
nodes = (
"117 0 LINE",
"180 0 LINE",
"203 452 LINE",
"141 452 LINE"
);
}
);
width = 286;
}
);
leftMetricsKey = n;
unicode = 0069;
},
{
glyphname = j;
lastChange = "2017-07-07 16:26:23 +0000";
layers = (
{
background = {
hints = (
{
origin = "{2, 2}";
target = "{2, 3}";
type = Cap;
name = _cap.obenneukurz;
},
{
origin = "{2, 0}";
target = "{2, 1}";
type = Cap;
name = _cap.untenneu;
}
);
paths = (
{
closed = 1;
nodes = (
"199 -105 OFFCURVE",
"165 -217 OFFCURVE",
"69 -288 CURVE",
"50 -268 LINE",
"103 -201 OFFCURVE",
"134 -147 OFFCURVE",
"143 9 CURVE SMOOTH",
"152 173 OFFCURVE",
"149 298 OFFCURVE",
"149 403 CURVE",
"81 395 LINE",
"70 415 LINE",
"103 441 OFFCURVE",
"166 465 OFFCURVE",
"207 472 CURVE",
"229 448 LINE",
"207 408 OFFCURVE",
"212 120 OFFCURVE",
"205 0 CURVE SMOOTH"
);
},
{
closed = 1;
nodes = (
"136 590 LINE",
"155 570 LINE",
"179 576 OFFCURVE",
"203 586 OFFCURVE",
"226 600 CURVE",
"226 626 OFFCURVE",
"227 652 OFFCURVE",
"228 677 CURVE",
"208 698 LINE",
"184 692 OFFCURVE",
"160 683 OFFCURVE",
"136 668 CURVE"
);
},
{
closed = 1;
nodes = (
"137 0 LINE",
"200 0 LINE",
"223 452 LINE",
"161 452 LINE"
);
}
);
};
components = (
{
name = dotaccentcomb;
transform = "{1, 0, 0, 1, 75, 0}";
}
);
hints = (
{
origin = "{0, 4}";
target = "{0, 5}";
type = Cap;
name = _cap.obenneukurz;
}
);
layerId = "E3DDE12C-3A5F-4385-A6FD-0C1D1DE2DDC5";
paths = (
{
closed = 1;
nodes = (
"155 209 LINE",
"142 0 LINE",
"205 0 LINE",
"216 210 LINE",
"228 452 LINE",
"166 452 LINE"
);
},
{
closed = 1;
nodes = (
"69 -288 LINE",
"156 -222 OFFCURVE",
"199 -124 OFFCURVE",
"205 0 CURVE",
"142 0 LINE",
"134 -124 OFFCURVE",
"110 -200 OFFCURVE",
"50 -268 CURVE"
);
}
);
width = 290;
}
);
leftMetricsKey = n;
unicode = 006A;
},
{
glyphname = k;
lastChange = "2017-07-07 16:31:19 +0000";
layers = (
{
background = {
components = (
{
name = _part.bogen;
transform = "{1, 0, 0, 1, 60, 0}";
}
);
paths = (
{
closed = 1;
nodes = (
"405 -20 LINE",
"437 12 OFFCURVE",
"473 64 OFFCURVE",
"483 97 CURVE",
"465 107 LINE",
"410 57 LINE",
"369 105 OFFCURVE",
"326 205 OFFCURVE",
"297 285 CURVE",
"239 244 LINE",
"275 154 OFFCURVE",
"327 39 OFFCURVE",
"375 -11 CURVE"
);
}
);
};
backgroundImage = {
crop = "{{0, 0}, {1259, 1280}}";
imagePath = "../finale Skizzen/xk.jpg";
locked = "1";
transform = "{0.8034, 0, 0, 0.8034, -451, -113}";
};
hints = (
{
origin = "{0, 0}";
target = "{0, 1}";
type = Cap;
name = _cap.knubbelneu;
},
{
origin = "{0, 2}";
target = "{0, 3}";
type = Cap;
name = _cap.obenneu;
}
);
layerId = "E3DDE12C-3A5F-4385-A6FD-0C1D1DE2DDC5";
paths = (
{
closed = 1;
nodes = (
"107 0 LINE",
"169 0 LINE",
"206 712 LINE",
"143 712 LINE"
);
},
{
closed = 1;
nodes = (
"168 106 LINE",
"326 386 LINE",
"358 386 OFFCURVE",
"376 362 OFFCURVE",
"376 335 CURVE SMOOTH",
"376 291 OFFCURVE",
"323 240 OFFCURVE",
"264 188 CURVE",
"368 -19 LINE",
"407 -20 LINE",
"423 -7 OFFCURVE",
"436 8 OFFCURVE",
"444 28 CURVE",
"319 196 LINE",
"413 246 OFFCURVE",
"454 295 OFFCURVE",
"454 343 CURVE SMOOTH",
"454 430 OFFCURVE",
"372 471 OFFCURVE",
"294 453 CURVE",
"163 159 LINE"
);
}
);
width = 484;
}
);
leftMetricsKey = n;
unicode = 006B;
},
{
glyphname = l;
lastChange = "2017-07-07 17:06:03 +0000";
layers = (
{
background = {
paths = (
{
closed = 1;
nodes = (
"241 79 LINE",
"253 62 LINE",
"231 37 OFFCURVE",
"158 -2 OFFCURVE",
"114 -13 CURVE",
"93 9 LINE",
"102 173 OFFCURVE",
"104 388 OFFCURVE",
"104 653 CURVE",
"36 645 LINE",
"25 665 LINE",
"58 691 OFFCURVE",
"121 715 OFFCURVE",
"162 722 CURVE",
"184 698 LINE",
"162 658 OFFCURVE",
"158 73 OFFCURVE",
"161 52 CURVE"
);
}
);
};
hints = (
{
origin = "{0, 2}";
target = "{0, 3}";
type = Cap;
name = _cap.obenneu;
},
{
origin = "{0, 0}";
target = "{0, 1}";
type = Cap;
name = _cap.untenneu;
}
);
layerId = "E3DDE12C-3A5F-4385-A6FD-0C1D1DE2DDC5";
paths = (
{
closed = 1;
nodes = (
"87 0 LINE",
"149 0 LINE",
"186 712 LINE",
"123 712 LINE"
);
}
);
width = 269;
}
);
unicode = 006C;
},
{
glyphname = m;
lastChange = "2017-07-07 17:16:26 +0000";
layers = (
{
background = {
paths = (
{
closed = 1;
nodes = (
"88 433 OFFCURVE",
"151 457 OFFCURVE",
"192 464 CURVE",
"214 440 LINE",
"194 359 OFFCURVE",
"198 214 OFFCURVE",
"198 101 CURVE SMOOTH",
"198 78 OFFCURVE",
"198 51 OFFCURVE",
"206 8 CURVE",
"152 -14 LINE",
"117 -14 OFFCURVE",
"99 26 OFFCURVE",
"112 66 CURVE SMOOTH",
"124 102 OFFCURVE",
"138 127 OFFCURVE",
"153 155 CURVE",
"176 180 OFFCURVE",
"180 154 OFFCURVE",
"193 180 CURVE SMOOTH",
"233 259 OFFCURVE",
"263 344 OFFCURVE",
"295 459 CURVE",
"310 464 OFFCURVE",
"325 467 OFFCURVE",
"351 465 CURVE SMOOTH",
"408 460 OFFCURVE",
"449 422 OFFCURVE",
"449 311 CURVE",
"449 225 OFFCURVE",
"436 130 OFFCURVE",
"441 51 CURVE",
"369 9 LINE",
"373 89 OFFCURVE",
"377 175 OFFCURVE",
"378 257 CURVE",
"378 360 OFFCURVE",
"375 387 OFFCURVE",
"340 404 CURVE",
"282 273 OFFCURVE",
"242 191 OFFCURVE",
"191 121 CURVE SMOOTH",
"168 89 OFFCURVE",
"156 108 OFFCURVE",
"134 75 CURVE",
"134 395 LINE",
"66 387 LINE",
"55 407 LINE"
);
},
{
closed = 1;
nodes = (
"408 123 LINE",
"440 159 LINE",
"440 139 OFFCURVE",
"440 120 OFFCURVE",
"440 101 CURVE SMOOTH",
"440 78 OFFCURVE",
"440 51 OFFCURVE",
"448 8 CURVE",
"394 -14 LINE",
"359 -14 OFFCURVE",
"345 26 OFFCURVE",
"356 66 CURVE SMOOTH",
"366 102 OFFCURVE",
"380 127 OFFCURVE",
"395 155 CURVE",
"418 180 OFFCURVE",
"422 154 OFFCURVE",
"435 180 CURVE SMOOTH",
"475 259 OFFCURVE",
"505 344 OFFCURVE",
"537 459 CURVE",
"552 464 OFFCURVE",
"567 467 OFFCURVE",
"593 465 CURVE SMOOTH",
"650 460 OFFCURVE",
"691 422 OFFCURVE",
"691 311 CURVE",
"691 225 OFFCURVE",
"678 130 OFFCURVE",
"683 51 CURVE",
"763 78 LINE",
"774 61 LINE",
"747 31 OFFCURVE",
"664 -7 OFFCURVE",
"633 -14 CURVE",
"611 9 LINE",
"615 89 OFFCURVE",
"619 175 OFFCURVE",
"620 257 CURVE",
"620 360 OFFCURVE",
"617 387 OFFCURVE",
"582 404 CURVE",
"524 273 OFFCURVE",
"484 191 OFFCURVE",
"433 121 CURVE"
);
}
);
};
components = (
{
name = _part.bogen;
transform = "{1, 0, 0, 1, 343, 0}";
piece = {
crotchDepth = -17.1765;
shoulderWidh = 14.0735;
};
},
{
name = _part.bogenknubbel;
transform = "{1, 0, 0, 1, 76, 0}";
piece = {
shoulderWidh = 49.942;
};
}
);
hints = (
{
origin = "{0, 0}";
target = "{0, 1}";
type = Cap;
name = _cap.knubbelneu;
},
{
origin = "{0, 2}";
target = "{0, 3}";
type = Cap;
name = _cap.obenneukurz;
}
);
layerId = "E3DDE12C-3A5F-4385-A6FD-0C1D1DE2DDC5";
paths = (
{
closed = 1;
nodes = (
"125 0 LINE",
"187 0 LINE",
"208 452 LINE",
"146 452 LINE"
);
}
);
width = 848;
}
);
leftMetricsKey = n;
rightMetricsKey = n;
unicode = 006D;
},
{
glyphname = n;
lastChange = "2017-07-07 17:14:41 +0000";
layers = (
{
background = {
paths = (
{
closed = 1;
nodes = (
"88 433 OFFCURVE",
"151 457 OFFCURVE",
"192 464 CURVE",
"214 440 LINE",
"194 359 OFFCURVE",
"198 214 OFFCURVE",
"198 101 CURVE SMOOTH",
"198 78 OFFCURVE",
"198 51 OFFCURVE",
"206 8 CURVE",
"152 -14 LINE",
"117 -14 OFFCURVE",
"99 26 OFFCURVE",
"112 66 CURVE SMOOTH",
"124 102 OFFCURVE",
"138 127 OFFCURVE",
"153 155 CURVE",
"176 180 OFFCURVE",
"180 154 OFFCURVE",
"193 180 CURVE SMOOTH",
"233 259 OFFCURVE",
"266 344 OFFCURVE",
"298 459 CURVE",
"313 464 OFFCURVE",
"328 467 OFFCURVE",
"354 465 CURVE SMOOTH",
"413 461 OFFCURVE",
"454 422 OFFCURVE",
"454 311 CURVE",
"454 225 OFFCURVE",
"441 130 OFFCURVE",
"446 51 CURVE",
"526 78 LINE",
"537 61 LINE",
"510 31 OFFCURVE",
"427 -7 OFFCURVE",
"396 -14 CURVE",
"374 9 LINE",
"378 89 OFFCURVE",
"382 175 OFFCURVE",
"383 257 CURVE",
"383 360 OFFCURVE",
"380 387 OFFCURVE",
"343 404 CURVE",
"285 273 OFFCURVE",
"242 191 OFFCURVE",
"191 121 CURVE SMOOTH",
"168 89 OFFCURVE",
"156 108 OFFCURVE",
"134 75 CURVE",
"134 395 LINE",
"66 387 LINE",
"55 407 LINE"
);
}
);
};
components = (
{
name = _part.bogen;
transform = "{1, 0, 0, 1, 76, 0}";
}
);
hints = (
{
origin = "{0, 0}";
target = "{0, 1}";
type = Cap;
name = _cap.knubbelneu;
},
{
origin = "{0, 2}";
target = "{0, 3}";
type = Cap;
name = _cap.obenneukurz;
}
);
layerId = "E3DDE12C-3A5F-4385-A6FD-0C1D1DE2DDC5";
paths = (
{
closed = 1;
nodes = (
"125 0 LINE",
"187 0 LINE",
"208 452 LINE",
"146 452 LINE"
);
}
);
width = 586;
}
);
unicode = 006E;
},
{
glyphname = o;
lastChange = "2017-07-07 16:23:18 +0000";
layers = (
{
background = {
paths = (
{
closed = 1;
nodes = (
"183 459 OFFCURVE",
"136 445 OFFCURVE",
"99 420 CURVE",
"45 324 OFFCURVE",
"37 251 OFFCURVE",
"37 176 CURVE SMOOTH",
"37 60 OFFCURVE",
"116 -7 OFFCURVE",
"183 -7 CURVE SMOOTH",
"216 -7 OFFCURVE",
"254 -3 OFFCURVE",
"300 33 CURVE",
"349 116 OFFCURVE",
"363 203 OFFCURVE",
"363 276 CURVE SMOOTH",
"363 398 OFFCURVE",
"295 459 OFFCURVE",
"212 459 CURVE SMOOTH"
);
},
{
closed = 1;
nodes = (
"106 317 OFFCURVE",
"119 375 OFFCURVE",
"138 404 CURVE",
"251 426 OFFCURVE",
"296 360 OFFCURVE",
"296 194 CURVE SMOOTH",
"296 142 OFFCURVE",
"281 72 OFFCURVE",
"266 54 CURVE",
"161 35 OFFCURVE",
"106 100 OFFCURVE",
"106 249 CURVE SMOOTH"
);
}
);
};
layerId = "E3DDE12C-3A5F-4385-A6FD-0C1D1DE2DDC5";
paths = (
{
closed = 1;
nodes = (
"367 325 LINE",
"404 345 OFFCURVE",
"434 374 OFFCURVE",
"459 414 CURVE",
"441 379 LINE",
"376 461 OFFCURVE",
"304 456 OFFCURVE",
"273 456 CURVE SMOOTH",
"127 456 OFFCURVE",
"40 325 OFFCURVE",
"40 193 CURVE SMOOTH",
"40 84 OFFCURVE",
"106 -9 OFFCURVE",
"216 -9 CURVE SMOOTH",
"353 -9 OFFCURVE",
"463 110 OFFCURVE",
"463 248 CURVE SMOOTH",
"463 324 OFFCURVE",
"446 368 OFFCURVE",
"394 422 CURVE",
"431 425 LINE",
"323 342 LINE",
"360 384 LINE",
"394 310 OFFCURVE",
"403 282 OFFCURVE",
"403 223 CURVE SMOOTH",
"403 118 OFFCURVE",
"343 53 OFFCURVE",
"259 53 CURVE SMOOTH",
"149 53 OFFCURVE",
"108 156 OFFCURVE",
"108 235 CURVE SMOOTH",
"108 315 OFFCURVE",
"159 409 OFFCURVE",
"246 409 CURVE SMOOTH",
"294 409 OFFCURVE",
"326 375 OFFCURVE",
"347 332 CURVE"
);
}
);
width = 503;
}
);
unicode = 006F;
},
{
glyphname = p;
lastChange = "2017-07-07 17:10:23 +0000";
layers = (
{
background = {
paths = (
{
closed = 1;
nodes = (
"203 131 LINE",
"272 228 OFFCURVE",
"307 297 OFFCURVE",
"354 404 CURVE",
"501 327 OFFCURVE",
"407 -59 OFFCURVE",
"168 85 CURVE",
"166 12 LINE",
"347 -25 OFFCURVE",
"476 108 OFFCURVE",
"497 268 CURVE SMOOTH",
"509 371 OFFCURVE",
"455 454 OFFCURVE",
"384 463 CURVE SMOOTH",
"356 466 OFFCURVE",
"333 468 OFFCURVE",
"309 459 CURVE",
"287 370 OFFCURVE",
"234 247 OFFCURVE",
"203 186 CURVE"
);
},
{
closed = 0;
nodes = (
"209 52 LINE"
);
},
{
closed = 0;
nodes = (
"208 165 LINE"
);
},
{
closed = 1;
nodes = (
"196 -204 OFFCURVE",
"207 414 OFFCURVE",
"229 454 CURVE",
"207 478 LINE",
"166 471 OFFCURVE",
"103 447 OFFCURVE",
"70 421 CURVE",
"81 401 LINE",
"149 409 LINE",
"149 144 OFFCURVE",
"140 -104 OFFCURVE",
"131 -268 CURVE",
"152 -290 LINE",
"199 -276 OFFCURVE",
"253 -251 OFFCURVE",
"291 -215 CURVE",
"279 -198 LINE",
"199 -225 LINE"
);
}
);
};
components = (
{
name = _part.bauch;
transform = "{-1, 0, 0, -1, 548, 449}";
}
);
hints = (
{
origin = "{0, 2}";
target = "{0, 3}";
type = Cap;
name = _cap.obenneu;
},
{
origin = "{0, 0}";
target = "{0, 1}";
type = Cap;
name = _cap.unterlaenge;
}
);
layerId = "E3DDE12C-3A5F-4385-A6FD-0C1D1DE2DDC5";
paths = (
{
closed = 1;
nodes = (
"117 -288 LINE",
"180 -288 LINE",
"223 452 LINE",
"160 452 LINE"
);
}
);
width = 557;
}
);
rightMetricsKey = o;
unicode = 0070;
},
{
glyphname = q;
lastChange = "2017-07-07 16:33:24 +0000";
layers = (
{
background = {
paths = (
{
closed = 1;
nodes = (
"20 83 OFFCURVE",
"74 0 OFFCURVE",
"145 -9 CURVE SMOOTH",
"173 -12 OFFCURVE",
"196 -14 OFFCURVE",
"220 -5 CURVE",
"242 84 OFFCURVE",
"295 207 OFFCURVE",
"326 268 CURVE",
"353 317 OFFCURVE",
"349 266 OFFCURVE",
"365 296 CURVE SMOOTH",
"380 324 OFFCURVE",
"394 348 OFFCURVE",
"405 379 CURVE SMOOTH",
"419 420 OFFCURVE",
"409 452 OFFCURVE",
"369 467 CURVE",
"311 442 LINE",
"326 361 OFFCURVE",
"312 -104 OFFCURVE",
"299 -268 CURVE",
"320 -290 LINE",
"364 -279 OFFCURVE",
"441 -240 OFFCURVE",
"463 -215 CURVE",
"451 -198 LINE",
"371 -225 LINE",
"371 -121 OFFCURVE",
"380 222 OFFCURVE",
"392 369 CURVE",
"366 339 OFFCURVE",
"360 356 OFFCURVE",
"323 318 CURVE",
"254 221 OFFCURVE",
"222 157 OFFCURVE",
"175 50 CURVE",
"28 127 OFFCURVE",
"122 513 OFFCURVE",
"361 369 CURVE",
"398 433 LINE",
"199 495 OFFCURVE",
"54 356 OFFCURVE",
"32 186 CURVE SMOOTH"
);
}
);
};
components = (
{
name = _part.bauch;
transform = "{1, 0, 0, 1, 9, 0}";
}
);
hints = (
{
origin = "{0, 0}";
target = "{0, 1}";
type = Cap;
name = _cap.unterlaenge;
},
{
origin = "{0, 2}";
target = "{0, 3}";
type = Cap;
name = _cap.knubbelneu;
}
);
layerId = "E3DDE12C-3A5F-4385-A6FD-0C1D1DE2DDC5";
paths = (
{
closed = 1;
nodes = (
"305 -288 LINE",
"368 -288 LINE",
"411 452 LINE",
"348 452 LINE"
);
}
);
width = 523;
}
);
leftMetricsKey = o;
unicode = 0071;
},
{
glyphname = r;
lastChange = "2017-07-07 17:18:09 +0000";
layers = (
{
background = {
components = (
{
name = _part.r;
transform = "{1, 0, 0, 1, 65, 0}";
piece = {
crotchDepth = -100;
shoulderWidh = 0;
};
}
);
paths = (
{
closed = 1;
nodes = (
"266 252 OFFCURVE",
"284 397 OFFCURVE",
"397 360 CURVE",
"421 379 LINE",
"416 409 OFFCURVE",
"406 437 OFFCURVE",
"392 466 CURVE",
"344 470 OFFCURVE",
"308 452 OFFCURVE",
"280 420 CURVE",
"149 102 LINE",
"166 71 LINE"
);
}
);
};
hints = (
{
origin = "{0, 2}";
target = "{0, 3}";
type = Cap;
name = _cap.obenneukurz;
},
{
origin = "{0, 0}";
target = "{0, 1}";
type = Cap;
name = _cap.knubbelneu;
}
);
layerId = "E3DDE12C-3A5F-4385-A6FD-0C1D1DE2DDC5";
paths = (
{
closed = 1;
nodes = (
"126 0 LINE",
"189 0 LINE",
"188 452 LINE",
"126 452 LINE"
);
},
{
closed = 1;
nodes = (
"250 252 OFFCURVE",
"308 392 OFFCURVE",
"360 360 CURVE",
"384 375 LINE",
"390 406 OFFCURVE",
"386 435 OFFCURVE",
"372 466 CURVE",
"328 470 OFFCURVE",
"296 452 OFFCURVE",
"270 420 CURVE",
"149 102 LINE",
"166 71 LINE"
);
}
);
width = 395;
}
);
unicode = 0072;
},
{
glyphname = s;
lastChange = "2017-07-07 17:08:22 +0000";
layers = (
{
background = {
paths = (
{
closed = 1;
nodes = (
"282 252 OFFCURVE",
"196 264 OFFCURVE",
"162 294 CURVE",
"142 321 OFFCURVE",
"138 380 OFFCURVE",
"156 410 CURVE",
"199 426 OFFCURVE",
"258 400 OFFCURVE",
"271 354 CURVE",
"339 391 LINE",
"318 449 OFFCURVE",
"217 488 OFFCURVE",
"134 437 CURVE",
"97 391 OFFCURVE",
"74 318 OFFCURVE",
"113 238 CURVE",
"147 201 OFFCURVE",
"243 185 OFFCURVE",
"276 152 CURVE",
"293 124 OFFCURVE",
"288 73 OFFCURVE",
"280 44 CURVE",
"232 12 OFFCURVE",
"138 35 OFFCURVE",
"119 107 CURVE",
"59 74 LINE",
"80 -21 OFFCURVE",
"226 -46 OFFCURVE",
"312 17 CURVE",
"350 71 OFFCURVE",
"351 160 OFFCURVE",
"324 206 CURVE"
);
}
);
};
backgroundImage = {
crop = "{{0, 0}, {953, 1280}}";
imagePath = "../finale Skizzen/s neu.jpg";
locked = "1";
transform = "{0.5264, 0, 0, 0.5264, -41, -116}";
};
layerId = "E3DDE12C-3A5F-4385-A6FD-0C1D1DE2DDC5";
paths = (
{
closed = 1;
nodes = (
"333 416 OFFCURVE",
"290 458 OFFCURVE",
"219 458 CURVE SMOOTH",
"130 458 OFFCURVE",
"75 399 OFFCURVE",
"75 325 CURVE SMOOTH",
"75 195 OFFCURVE",
"280 188 OFFCURVE",
"280 107 CURVE SMOOTH",
"280 59 OFFCURVE",
"243 51 OFFCURVE",
"207 51 CURVE",
"178 51 OFFCURVE",
"124 73 OFFCURVE",
"110 100 CURVE",
"130 150 LINE",
"110 165 LINE",
"85 144 OFFCURVE",
"61 119 OFFCURVE",
"40 85 CURVE",
"51 55 LINE",
"85 14 OFFCURVE",
"143 -14 OFFCURVE",
"192 -14 CURVE SMOOTH",
"288 -14 OFFCURVE",
"337 42 OFFCURVE",
"337 128 CURVE SMOOTH",
"337 263 OFFCURVE",
"128 262 OFFCURVE",
"128 351 CURVE SMOOTH",
"128 374 OFFCURVE",
"141 407 OFFCURVE",
"189 407 CURVE SMOOTH",
"238 407 OFFCURVE",
"259 382 OFFCURVE",
"265 347 CURVE",
"278 338 LINE",
"311 347 OFFCURVE",
"329 362 OFFCURVE",
"345 383 CURVE"
);
}
);
width = 385;
}
);
unicode = 0073;
},
{
glyphname = t;
lastChange = "2017-07-07 17:21:40 +0000";
layers = (
{
background = {
hints = (
{
origin = "{0, 2}";
target = "{0, 3}";
type = Cap;
name = _cap.obenneu;
},
{
origin = "{0, 0}";
target = "{0, 1}";
type = Cap;
name = _cap.untenneu;
}
);
paths = (
{
closed = 1;
nodes = (
"118 0 LINE",
"180 0 LINE",
"217 712 LINE",
"154 712 LINE"
);
}
);
};
backgroundImage = {
crop = "{{0, 0}, {1280, 1225}}";
imagePath = "../finale Skizzen/ty.jpg";
locked = "1";
transform = "{0.8715, -0.0304, 0.0304, 0.8715, -50, -148}";
};
layerId = "E3DDE12C-3A5F-4385-A6FD-0C1D1DE2DDC5";
paths = (
{
closed = 1;
nodes = (
"264 66 LINE",
"187 49 LINE",
"150 56 OFFCURVE",
"149 110 OFFCURVE",
"153 195 CURVE SMOOTH",
"154 277 OFFCURVE",
"166 452 OFFCURVE",
"182 537 CURVE",
"156 561 LINE",
"121 490 OFFCURVE",
"69 443 OFFCURVE",
"21 414 CURVE",
"42 402 LINE",
"99 402 LINE",
"97 322 OFFCURVE",
"85 228 OFFCURVE",
"85 141 CURVE SMOOTH",
"85 61 OFFCURVE",
"95 5 OFFCURVE",
"164 -15 CURVE",
"206 0 OFFCURVE",
"241 20 OFFCURVE",
"270 46 CURVE"
);
},
{
closed = 1;
nodes = (
"21 414 LINE",
"40 394 LINE",
"233 394 LINE",
"249 404 OFFCURVE",
"264 417 OFFCURVE",
"276 434 CURVE",
"259 451 LINE",
"134 448 LINE",
"68 426 LINE"
);
}
);
width = 298;
}
);
unicode = 0074;
},
{
glyphname = u;
lastChange = "2017-07-07 17:10:23 +0000";
layers = (
{
background = {
paths = (
{
closed = 1;
nodes = (
"502 35 OFFCURVE",
"435 -7 OFFCURVE",
"394 -14 CURVE",
"372 9 LINE",
"380 106 OFFCURVE",
"384 238 OFFCURVE",
"384 351 CURVE SMOOTH",
"384 374 OFFCURVE",
"384 401 OFFCURVE",
"376 444 CURVE",
"430 466 LINE",
"465 466 OFFCURVE",
"483 426 OFFCURVE",
"470 386 CURVE SMOOTH",
"458 350 OFFCURVE",
"444 325 OFFCURVE",
"429 297 CURVE",
"406 272 OFFCURVE",
"402 298 OFFCURVE",
"389 272 CURVE SMOOTH",
"349 193 OFFCURVE",
"321 108 OFFCURVE",
"289 -7 CURVE",
"274 -12 OFFCURVE",
"259 -15 OFFCURVE",
"233 -13 CURVE SMOOTH",
"174 -8 OFFCURVE",
"135 30 OFFCURVE",
"135 141 CURVE",
"135 227 OFFCURVE",
"141 316 OFFCURVE",
"139 395 CURVE",
"71 387 LINE",
"60 407 LINE",
"100 437 OFFCURVE",
"167 460 OFFCURVE",
"197 464 CURVE",
"219 440 LINE",
"203 351 OFFCURVE",
"204 277 OFFCURVE",
"203 195 CURVE",
"203 113 OFFCURVE",
"207 65 OFFCURVE",
"244 48 CURVE",
"302 179 OFFCURVE",
"340 261 OFFCURVE",
"391 331 CURVE SMOOTH",
"414 363 OFFCURVE",
"426 344 OFFCURVE",
"448 377 CURVE",
"447 268 OFFCURVE",
"441 126 OFFCURVE",
"444 51 CURVE",
"524 78 LINE",
"535 61 LINE"
);
}
);
};
components = (
{
name = _part.bogenu;
transform = "{-1, 0, -0.0524, -1, 513, 438}";
piece = {
shoulderWidh = 50.8158;
};
}
);
hints = (
{
origin = "{0, 2}";
target = "{0, 3}";
type = Cap;
name = _cap.untenneu;
},
{
origin = "{0, 0}";
target = "{0, 1}";
type = Cap;
name = _cap.obenneukurz;
}
);
layerId = "E3DDE12C-3A5F-4385-A6FD-0C1D1DE2DDC5";
paths = (
{
closed = 1;
nodes = (
"461 452 LINE",
"399 452 LINE",
"362 0 LINE",
"424 0 LINE"
);
}
);
width = 559;
}
);
rightMetricsKey = n;
unicode = 0075;
},
{
glyphname = v;
lastChange = "2017-07-07 16:36:56 +0000";
layers = (
{
backgroundImage = {
crop = "{{0, 0}, {1231, 1280}}";
imagePath = "../finale Skizzen/v.jpg";
locked = "1";
transform = "{0.4656, 0, 0, 0.4656, -15, -33}";
};
layerId = "E3DDE12C-3A5F-4385-A6FD-0C1D1DE2DDC5";
paths = (
{
closed = 1;
nodes = (
"207 128 OFFCURVE",
"185 244 OFFCURVE",
"178 366 CURVE SMOOTH",
"177 388 OFFCURVE",
"180 410 OFFCURVE",
"182 433 CURVE",
"162 462 LINE",
"129 462 OFFCURVE",
"77 453 OFFCURVE",
"20 439 CURVE",
"26 409 LINE",
"72 413 OFFCURVE",
"98 402 OFFCURVE",
"103 368 CURVE SMOOTH",
"125 226 OFFCURVE",
"138 151 OFFCURVE",
"169 0 CURVE",
"196 -18 LINE",
"211 -12 OFFCURVE",
"225 -4 OFFCURVE",
"239 6 CURVE"
);
},
{
closed = 1;
nodes = (
"239 6 LINE",
"278 100 OFFCURVE",
"548 331 OFFCURVE",
"410 468 CURVE",
"378 460 OFFCURVE",
"351 450 OFFCURVE",
"325 435 CURVE",
"325 404 LINE",
"450 304 OFFCURVE",
"258 138 OFFCURVE",
"205 31 CURVE"
);
}
);
width = 469;
}
);
unicode = 0076;
},
{
glyphname = w;
lastChange = "2017-07-07 17:17:29 +0000";
layers = (
{
background = {
components = (
{
name = _cap.knubbelneu;
transform = "{-1, 0, 0, -1, 343, 305}";
}
);
};
backgroundImage = {
crop = "{{0, 0}, {757, 1280}}";
imagePath = "../finale Skizzen/fw.jpg";
locked = "1";
transform = "{1.1615, 0, 0, 1.1615, -102, -45}";
};
layerId = "E3DDE12C-3A5F-4385-A6FD-0C1D1DE2DDC5";
paths = (
{
closed = 1;
nodes = (
"187 128 OFFCURVE",
"165 244 OFFCURVE",
"158 366 CURVE SMOOTH",
"157 388 OFFCURVE",
"160 410 OFFCURVE",
"162 433 CURVE",
"142 462 LINE",
"109 462 OFFCURVE",
"57 453 OFFCURVE",
"0 439 CURVE",
"6 409 LINE",
"52 413 OFFCURVE",
"78 402 OFFCURVE",
"83 368 CURVE SMOOTH",
"105 226 OFFCURVE",
"118 151 OFFCURVE",
"149 0 CURVE",
"176 -18 LINE",
"191 -12 OFFCURVE",
"205 -4 OFFCURVE",
"219 6 CURVE"
);
},
{
closed = 1;
nodes = (
"300 212 LINE",
"263 148 OFFCURVE",
"210 82 OFFCURVE",
"185 31 CURVE",
"219 6 LINE",
"232 37 OFFCURVE",
"270 83 OFFCURVE",
"311 136 CURVE"
);
},
{
closed = 1;
nodes = (
"277 161 LINE",
"291 114 OFFCURVE",
"316 64 OFFCURVE",
"329 0 CURVE",
"356 -18 LINE",
"371 -12 OFFCURVE",
"385 -4 OFFCURVE",
"399 6 CURVE",
"378 85 OFFCURVE",
"346 162 OFFCURVE",
"330 239 CURVE"
);
},
{
closed = 1;
nodes = (
"399 6 LINE",
"438 100 OFFCURVE",
"672 331 OFFCURVE",
"550 468 CURVE",
"518 460 OFFCURVE",
"491 450 OFFCURVE",
"465 435 CURVE",
"465 390 LINE",
"555 313 OFFCURVE",
"409 138 OFFCURVE",
"365 31 CURVE"
);
},
{
closed = 1;
nodes = (
"317 141 LINE",
"356 197 OFFCURVE",
"376 246 OFFCURVE",
"370 286 CURVE",
"352 306 OFFCURVE",
"325 316 OFFCURVE",
"287 317 CURVE",
"271 286 LINE",
"263 228 OFFCURVE",
"277 185 OFFCURVE",
"286 145 CURVE"
);
}
);
width = 599;
}
);
unicode = 0077;
},
{
glyphname = x;
lastChange = "2017-06-25 15:56:28 +0000";
layers = (
{
background = {
paths = (
{
closed = 1;
nodes = (
"214 218 OFFCURVE",
"193 205 OFFCURVE",
"176 191 CURVE",
"179 191 OFFCURVE",
"179 194 OFFCURVE",
"179 194 CURVE",
"179 194 OFFCURVE",
"171 187 OFFCURVE",
"168 187 CURVE",
"168 187 OFFCURVE",
"168 187 OFFCURVE",
"168 187 CURVE",
"185 141 OFFCURVE",
"204 97 OFFCURVE",
"229 57 CURVE",
"242 30 OFFCURVE",
"259 0 OFFCURVE",
"287 -14 CURVE",
"290 -17 OFFCURVE",
"293 -17 OFFCURVE",
"293 -17 CURVE",
"301 -17 OFFCURVE",
"311 -12 OFFCURVE",
"315 -9 CURVE",
"328 -2 OFFCURVE",
"339 6 OFFCURVE",
"347 16 CURVE",
"362 39 OFFCURVE",
"377 60 OFFCURVE",
"392 83 CURVE",
"400 93 OFFCURVE",
"395 100 OFFCURVE",
"384 100 CURVE",
"384 100 OFFCURVE",
"381 100 OFFCURVE",
"379 100 CURVE",
"362 97 OFFCURVE",
"344 85 OFFCURVE",
"334 69 CURVE",
"331 64 OFFCURVE",
"326 60 OFFCURVE",
"323 55 CURVE",
"323 55 OFFCURVE",
"323 55 OFFCURVE",
"323 55 CURVE",
"314 67 OFFCURVE",
"306 80 OFFCURVE",
"298 93 CURVE",
"278 126 OFFCURVE",
"262 161 OFFCURVE",
"248 197 CURVE",
"242 210 OFFCURVE",
"237 220 OFFCURVE",
"232 232 CURVE"
);
},
{
closed = 1;
nodes = (
"115 452 LINE",
"115 452 LINE"
);
},
{
closed = 1;
nodes = (
"102 472 OFFCURVE",
"91 467 OFFCURVE",
"86 464 CURVE",
"77 456 OFFCURVE",
"63 450 OFFCURVE",
"55 439 CURVE",
"41 419 OFFCURVE",
"27 395 OFFCURVE",
"13 376 CURVE",
"5 365 OFFCURVE",
"8 357 OFFCURVE",
"18 357 CURVE",
"21 357 OFFCURVE",
"22 357 OFFCURVE",
"22 357 CURVE",
"41 360 OFFCURVE",
"58 373 OFFCURVE",
"69 388 CURVE",
"71 390 OFFCURVE",
"74 395 OFFCURVE",
"77 398 CURVE",
"82 390 OFFCURVE",
"86 384 OFFCURVE",
"88 373 CURVE",
"104 342 OFFCURVE",
"119 309 OFFCURVE",
"132 276 CURVE",
"140 256 OFFCURVE",
"148 238 OFFCURVE",
"155 218 CURVE",
"163 224 OFFCURVE",
"173 230 OFFCURVE",
"184 238 CURVE",
"196 246 OFFCURVE",
"209 256 OFFCURVE",
"218 266 CURVE",
"198 315 OFFCURVE",
"181 362 OFFCURVE",
"157 411 CURVE",
"148 431 OFFCURVE",
"135 459 OFFCURVE",
"115 470 CURVE",
"112 472 OFFCURVE",
"112 472 OFFCURVE",
"110 472 CURVE"
);
},
{
closed = 1;
nodes = (
"145 210 OFFCURVE",
"135 205 OFFCURVE",
"124 194 CURVE",
"94 169 OFFCURVE",
"66 136 OFFCURVE",
"49 97 CURVE",
"33 61 OFFCURVE",
"33 24 OFFCURVE",
"46 -14 CURVE",
"46 -17 OFFCURVE",
"49 -19 OFFCURVE",
"54 -19 CURVE",
"74 -19 OFFCURVE",
"124 11 OFFCURVE",
"118 34 CURVE",
"107 64 OFFCURVE",
"107 97 OFFCURVE",
"119 126 CURVE",
"124 133 OFFCURVE",
"127 138 OFFCURVE",
"130 146 CURVE",
"132 149 OFFCURVE",
"135 152 OFFCURVE",
"138 157 CURVE",
"140 157 OFFCURVE",
"140 157 OFFCURVE",
"140 159 CURVE",
"140 159 OFFCURVE",
"140 159 OFFCURVE",
"140 159 CURVE",
"140 159 OFFCURVE",
"143 161 OFFCURVE",
"145 161 CURVE",
"148 166 OFFCURVE",
"151 169 OFFCURVE",
"152 171 CURVE",
"155 174 OFFCURVE",
"155 174 OFFCURVE",
"157 177 CURVE",
"157 177 OFFCURVE",
"157 177 OFFCURVE",
"157 177 CURVE",
"160 179 OFFCURVE",
"165 182 OFFCURVE",
"168 187 CURVE",
"163 197 OFFCURVE",
"157 207 OFFCURVE",
"155 218 CURVE"
);
},
{
closed = 1;
nodes = (
"301 475 OFFCURVE",
"252 442 OFFCURVE",
"262 421 CURVE",
"273 398 OFFCURVE",
"275 370 OFFCURVE",
"267 345 CURVE",
"265 329 OFFCURVE",
"257 317 OFFCURVE",
"249 307 CURVE",
"240 289 OFFCURVE",
"234 281 OFFCURVE",
"221 268 CURVE",
"218 268 OFFCURVE",
"218 266 OFFCURVE",
"218 266 CURVE",
"221 256 OFFCURVE",
"226 243 OFFCURVE",
"232 232 CURVE",
"281 271 OFFCURVE",
"323 315 OFFCURVE",
"339 373 CURVE",
"348 406 OFFCURVE",
"348 439 OFFCURVE",
"334 470 CURVE",
"331 472 OFFCURVE",
"328 475 OFFCURVE",
"323 475 CURVE"
);
},
{
closed = 1;
nodes = (
"209 256 OFFCURVE",
"196 246 OFFCURVE",
"184 238 CURVE",
"173 230 OFFCURVE",
"163 224 OFFCURVE",
"155 218 CURVE",
"157 207 OFFCURVE",
"163 197 OFFCURVE",
"168 187 CURVE",
"168 187 OFFCURVE",
"168 187 OFFCURVE",
"168 187 CURVE",
"171 187 OFFCURVE",
"179 194 OFFCURVE",
"179 194 CURVE",
"179 194 OFFCURVE",
"179 191 OFFCURVE",
"176 191 CURVE",
"193 205 OFFCURVE",
"214 218 OFFCURVE",
"232 232 CURVE",
"226 243 OFFCURVE",
"221 256 OFFCURVE",
"218 266 CURVE"
);
}
);
};
backgroundImage = {
crop = "{{0, 0}, {587, 1280}}";
imagePath = "../finale Skizzen/xz.jpg";
locked = "1";
transform = "{1, 0, 0, 1, -48, -718}";
};
layerId = "E3DDE12C-3A5F-4385-A6FD-0C1D1DE2DDC5";
paths = (
{
closed = 1;
nodes = (
"312 -20 LINE",
"344 12 OFFCURVE",
"380 64 OFFCURVE",
"390 97 CURVE",
"372 107 LINE",
"317 57 LINE",
"238 151 OFFCURVE",
"197 364 OFFCURVE",
"129 469 CURVE",
"98 479 LINE",
"66 452 OFFCURVE",
"30 409 OFFCURVE",
"11 378 CURVE",
"28 361 LINE",
"83 397 LINE",
"142 300 OFFCURVE",
"199 76 OFFCURVE",
"282 -11 CURVE"
);
},
{
closed = 1;
nodes = (
"279 446 LINE",
"307 356 OFFCURVE",
"269 296 OFFCURVE",
"191 244 CURVE SMOOTH",
"78 169 OFFCURVE",
"9 74 OFFCURVE",
"37 -35 CURVE",
"120 7 LINE",
"89 94 OFFCURVE",
"129 160 OFFCURVE",
"202 212 CURVE SMOOTH",
"352 319 OFFCURVE",
"387 409 OFFCURVE",
"356 490 CURVE"
);
}
);
width = 404;
}
);
unicode = 0078;
},
{
glyphname = y;
lastChange = "2017-07-01 22:39:53 +0000";
layers = (
{
background = {
paths = (
{
closed = 1;
nodes = (
"298 461 LINE",
"371 370 OFFCURVE",
"371 263 OFFCURVE",
"270 87 CURVE SMOOTH",
"191 -51 OFFCURVE",
"157 -171 OFFCURVE",
"242 -259 CURVE",
"164 -286 LINE",
"24 -158 OFFCURVE",
"201 39 OFFCURVE",
"246 126 CURVE SMOOTH",
"306 241 OFFCURVE",
"279 350 OFFCURVE",
"220 435 CURVE"
);
},
{
closed = 1;
nodes = (
"135 453 LINE",
"47 276 OFFCURVE",
"83 92 OFFCURVE",
"229 50 CURVE",
"191 -13 LINE",
"13 26 OFFCURVE",
"-20 245 OFFCURVE",
"85 435 CURVE"
);
}
);
};
layerId = "E3DDE12C-3A5F-4385-A6FD-0C1D1DE2DDC5";
paths = (
{
closed = 1;
nodes = (
"195 128 OFFCURVE",
"172 244 OFFCURVE",
"166 366 CURVE SMOOTH",
"165 388 OFFCURVE",
"168 410 OFFCURVE",
"170 433 CURVE",
"150 462 LINE",
"117 462 OFFCURVE",
"65 453 OFFCURVE",
"8 439 CURVE",
"14 409 LINE",
"60 413 OFFCURVE",
"86 402 OFFCURVE",
"91 368 CURVE SMOOTH",
"112 226 OFFCURVE",
"128 142 OFFCURVE",
"159 -9 CURVE",
"184 -18 LINE",
"199 -12 OFFCURVE",
"213 -4 OFFCURVE",
"227 6 CURVE"
);
},
{
closed = 1;
nodes = (
"227 6 LINE",
"266 100 OFFCURVE",
"536 331 OFFCURVE",
"398 468 CURVE",
"366 460 OFFCURVE",
"339 450 OFFCURVE",
"313 435 CURVE",
"313 390 LINE",
"421 313 OFFCURVE",
"246 138 OFFCURVE",
"193 31 CURVE"
);
},
{
closed = 1;
nodes = (
"194 51 LINE",
"122 -58 OFFCURVE",
"32 -202 OFFCURVE",
"139 -298 CURVE",
"170 -290 OFFCURVE",
"196 -280 OFFCURVE",
"220 -265 CURVE",
"216 -220 LINE",
"141 -170 OFFCURVE",
"180 -81 OFFCURVE",
"227 6 CURVE"
);
}
);
width = 437;
}
);
unicode = 0079;
},
{
glyphname = z;
lastChange = "2017-07-07 16:34:34 +0000";
layers = (
{
background = {
paths = (
{
closed = 1;
nodes = (
"385 94 OFFCURVE",
"382 52 OFFCURVE",
"374 16 CURVE",
"345 -2 LINE",
"274 9 OFFCURVE",
"198 28 OFFCURVE",
"134 19 CURVE",
"123 -9 LINE",
"88 -8 OFFCURVE",
"62 3 OFFCURVE",
"45 24 CURVE",
"50 61 OFFCURVE",
"78 92 OFFCURVE",
"118 117 CURVE",
"300 349 LINE",
"242 358 OFFCURVE",
"179 396 OFFCURVE",
"136 396 CURVE SMOOTH",
"112 396 OFFCURVE",
"92 383 OFFCURVE",
"80 342 CURVE",
"55 343 LINE",
"59 419 OFFCURVE",
"92 468 OFFCURVE",
"148 468 CURVE SMOOTH",
"220 468 OFFCURVE",
"263 420 OFFCURVE",
"327 404 CURVE",
"359 463 LINE",
"381 463 OFFCURVE",
"402 454 OFFCURVE",
"416 440 CURVE",
"422 396 OFFCURVE",
"392 352 OFFCURVE",
"362 341 CURVE",
"153 69 LINE",
"280 66 OFFCURVE",
"349 74 OFFCURVE",
"361 135 CURVE",
"381 134 LINE"
);
}
);
};
backgroundImage = {
crop = "{{0, 0}, {1257, 1280}}";
imagePath = "../finale Skizzen/z.jpg";
locked = "1";
transform = "{0.5677, 0, 0, 0.5677, -197, -129}";
};
layerId = "E3DDE12C-3A5F-4385-A6FD-0C1D1DE2DDC5";
paths = (
{
closed = 1;
nodes = (
"89 365 OFFCURVE",
"92 407 OFFCURVE",
"100 443 CURVE",
"129 461 LINE",
"200 450 OFFCURVE",
"276 431 OFFCURVE",
"340 440 CURVE",
"351 468 LINE",
"386 467 OFFCURVE",
"412 456 OFFCURVE",
"429 435 CURVE",
"424 398 OFFCURVE",
"396 367 OFFCURVE",
"356 342 CURVE",
"183 110 LINE",
"238 101 OFFCURVE",
"298 63 OFFCURVE",
"338 63 CURVE SMOOTH",
"362 63 OFFCURVE",
"382 76 OFFCURVE",
"394 117 CURVE",
"419 116 LINE",
"415 40 OFFCURVE",
"382 -9 OFFCURVE",
"326 -9 CURVE SMOOTH",
"256 -9 OFFCURVE",
"213 39 OFFCURVE",
"151 55 CURVE",
"127 -9 LINE",
"95 -11 OFFCURVE",
"59 4 OFFCURVE",
"45 24 CURVE",
"49 59 LINE",
"68 84 OFFCURVE",
"92 104 OFFCURVE",
"119 118 CURVE",
"321 390 LINE",
"194 393 OFFCURVE",
"125 385 OFFCURVE",
"113 324 CURVE",
"93 325 LINE"
);
}
);
width = 474;
}
);
unicode = 007A;
},
{
glyphname = d.001;
layers = (
{
background = {
paths = (
{
closed = 1;
nodes = (
"253 691 OFFCURVE",
"316 715 OFFCURVE",
"357 722 CURVE",
"379 698 LINE",
"359 617 OFFCURVE",
"363 472 OFFCURVE",
"363 359 CURVE SMOOTH",
"363 336 OFFCURVE",
"363 309 OFFCURVE",
"371 266 CURVE",
"317 244 LINE",
"294 251 OFFCURVE",
"273 277 OFFCURVE",
"273 310 CURVE",
"393 479 OFFCURVE",
"317 481 OFFCURVE",
"362 371 CURVE",
"343 338 OFFCURVE",
"321 366 OFFCURVE",
"299 333 CURVE",
"299 653 LINE",
"231 645 LINE",
"220 665 LINE"
);
},
{
closed = 1;
nodes = (
"30 63 OFFCURVE",
"94 -13 OFFCURVE",
"166 -13 CURVE SMOOTH",
"194 -13 OFFCURVE",
"217 -12 OFFCURVE",
"240 0 CURVE",
"251 147 OFFCURVE",
"288 242 OFFCURVE",
"310 292 CURVE SMOOTH",
"323 323 OFFCURVE",
"330 287 OFFCURVE",
"346 317 CURVE SMOOTH",
"390 400 LINE",
"389 436 OFFCURVE",
"371 456 OFFCURVE",
"347 467 CURVE",
"289 442 LINE",
"304 361 OFFCURVE",
"300 173 OFFCURVE",
"287 9 CURVE",
"308 -13 LINE",
"352 -2 OFFCURVE",
"429 37 OFFCURVE",
"451 62 CURVE",
"439 79 LINE",
"359 52 LINE",
"359 156 OFFCURVE",
"366 263 OFFCURVE",
"370 369 CURVE",
"344 339 OFFCURVE",
"324 380 OFFCURVE",
"301 340 CURVE SMOOTH",
"237 229 OFFCURVE",
"208 144 OFFCURVE",
"188 49 CURVE",
"33 107 OFFCURVE",
"78 502 OFFCURVE",
"333 389 CURVE",
"362 457 LINE",
"157 494 OFFCURVE",
"30 338 OFFCURVE",
"30 166 CURVE SMOOTH"
);
}
);
};
backgroundImage = {
crop = "{{0, 0}, {960, 1280}}";
imagePath = "../finale Skizzen/oberlänge Stamm.jpg";
locked = "1";
transform = "{0.9996, -0.0284, 0.0284, 0.9996, -132, -266}";
};
layerId = "E3DDE12C-3A5F-4385-A6FD-0C1D1DE2DDC5";
paths = (
{
closed = 1;
nodes = (
"439 79 LINE",
"451 62 LINE",
"429 37 OFFCURVE",
"356 -2 OFFCURVE",
"312 -13 CURVE",
"291 9 LINE",
"300 173 OFFCURVE",
"299 388 OFFCURVE",
"299 653 CURVE",
"231 645 LINE",
"220 665 LINE",
"253 691 OFFCURVE",
"316 715 OFFCURVE",
"357 722 CURVE",
"379 698 LINE",
"357 658 OFFCURVE",
"356 73 OFFCURVE",
"359 52 CURVE"
);
}
);
width = 486;
}
);
},
{
glyphname = g.001;
lastChange = "2017-06-27 09:59:36 +0000";
layers = (
{
background = {
paths = (
{
closed = 1;
nodes = (
"3 -201 OFFCURVE",
"76 -271 OFFCURVE",
"174 -271 CURVE SMOOTH",
"296 -271 OFFCURVE",
"364 -166 OFFCURVE",
"364 -45 CURVE",
"301 -45 LINE",
"301 -109 OFFCURVE",
"292 -222 OFFCURVE",
"203 -222 CURVE SMOOTH",
"132 -222 OFFCURVE",
"71 -182 OFFCURVE",
"91 -67 CURVE",
"23 -100 LINE"
);
}
);
};
backgroundImage = {
crop = "{{0, 0}, {1280, 1137}}";
imagePath = "../finale Skizzen/gcj.jpg";
locked = "1";
transform = "{0.9704, 0, 0, 0.9683, -56, -378}";
};
layerId = "E3DDE12C-3A5F-4385-A6FD-0C1D1DE2DDC5";
paths = (
{
closed = 1;
nodes = (
"427 100 OFFCURVE",
"373 149 OFFCURVE",
"373 369 CURVE",
"347 339 OFFCURVE",
"351 356 OFFCURVE",
"314 318 CURVE",
"245 221 OFFCURVE",
"223 167 OFFCURVE",
"176 60 CURVE",
"29 137 OFFCURVE",
"113 513 OFFCURVE",
"352 369 CURVE",
"389 433 LINE",
"190 495 OFFCURVE",
"55 366 OFFCURVE",
"33 196 CURVE SMOOTH",
"21 93 OFFCURVE",
"75 10 OFFCURVE",
"146 1 CURVE SMOOTH",
"174 -2 OFFCURVE",
"197 -4 OFFCURVE",
"221 5 CURVE",
"243 94 OFFCURVE",
"286 207 OFFCURVE",
"317 268 CURVE",
"344 317 OFFCURVE",
"340 266 OFFCURVE",
"356 296 CURVE SMOOTH",
"371 324 OFFCURVE",
"385 348 OFFCURVE",
"396 379 CURVE SMOOTH",
"410 420 OFFCURVE",
"400 452 OFFCURVE",
"360 467 CURVE",
"302 442 LINE",
"302 114 OFFCURVE",
"363 105 OFFCURVE",
"363 -47 CURVE SMOOTH",
"363 -200 OFFCURVE",
"283 -206 OFFCURVE",
"232 -206 CURVE SMOOTH",
"205 -206 OFFCURVE",
"173 -190 OFFCURVE",
"156 -169 CURVE",
"170 -114 OFFCURVE",
"177 -93 OFFCURVE",
"221 5 CURVE",
"184 8 LINE",
"140 -71 OFFCURVE",
"106 -134 OFFCURVE",
"77 -211 CURVE",
"97 -234 OFFCURVE",
"150 -255 OFFCURVE",
"190 -255 CURVE SMOOTH",
"293 -255 OFFCURVE",
"427 -206 OFFCURVE",
"427 -8 CURVE SMOOTH"
);
}
);
width = 417;
}
);
},
{
glyphname = t.001;
lastChange = "2017-07-01 21:53:32 +0000";
layers = (
{
background = {
paths = (
{
closed = 1;
nodes = (
"67 0 LINE",
"129 0 LINE",
"166 712 LINE",
"103 712 LINE"
);
}
);
};
backgroundImage = {
crop = "{{0, 0}, {637, 1280}}";
imagePath = "../finale Skizzen/t Kopie.jpg";
locked = "1";
transform = "{0.6355, -0.0222, 0.0222, 0.6355, -44, -78}";
};
layerId = "E3DDE12C-3A5F-4385-A6FD-0C1D1DE2DDC5";
paths = (
{
closed = 1;
nodes = (
"253 66 LINE",
"176 49 LINE",
"135 56 OFFCURVE",
"133 110 OFFCURVE",
"138 195 CURVE SMOOTH",
"143 277 OFFCURVE",
"152 484 OFFCURVE",
"160 576 CURVE",
"142 589 LINE",
"85 561 LINE",
"90 504 OFFCURVE",
"90 455 OFFCURVE",
"88 402 CURVE SMOOTH",
"85 322 OFFCURVE",
"74 228 OFFCURVE",
"74 141 CURVE SMOOTH",
"74 61 OFFCURVE",
"84 5 OFFCURVE",
"153 -15 CURVE",
"195 0 OFFCURVE",
"230 20 OFFCURVE",
"259 46 CURVE"
);
},
{
closed = 1;
nodes = (
"10 417 LINE",
"29 397 LINE",
"134 407 LINE",
"238 397 LINE",
"254 404 OFFCURVE",
"269 417 OFFCURVE",
"281 437 CURVE",
"264 451 LINE",
"123 448 LINE",
"49 452 LINE"
);
}
);
width = 281;
}
);
},
{
glyphname = c.002;
lastChange = "2017-07-01 22:52:51 +0000";
layers = (
{
background = {
paths = (
{
closed = 1;
nodes = (
"300 71 LINE",
"184 16 OFFCURVE",
"91 73 OFFCURVE",
"91 232 CURVE SMOOTH",
"91 300 OFFCURVE",
"111 372 OFFCURVE",
"131 403 CURVE",
"179 418 OFFCURVE",
"277 388 OFFCURVE",
"262 248 CURVE",
"341 277 LINE",
"354 409 OFFCURVE",
"265 459 OFFCURVE",
"204 459 CURVE",
"176 459 OFFCURVE",
"128 445 OFFCURVE",
"90 418 CURVE",
"37 324 OFFCURVE",
"20 229 OFFCURVE",
"20 162 CURVE SMOOTH",
"20 35 OFFCURVE",
"108 -6 OFFCURVE",
"176 -6 CURVE",
"210 -6 OFFCURVE",
"267 5 OFFCURVE",
"313 42 CURVE"
);
},
{
closed = 1;
nodes = (
"358 445 LINE",
"160 499 OFFCURVE",
"31 350 OFFCURVE",
"31 181 CURVE SMOOTH",
"31 32 OFFCURVE",
"138 -35 OFFCURVE",
"248 3 CURVE",
"202 -45 LINE",
"360 311 LINE",
"344 340 LINE",
"160 12 LINE",
"210 58 LINE",
"134 79 OFFCURVE",
"101 150 OFFCURVE",
"101 223 CURVE SMOOTH",
"101 347 OFFCURVE",
"200 476 OFFCURVE",
"360 370 CURVE"
);
}
);
};
layerId = "E3DDE12C-3A5F-4385-A6FD-0C1D1DE2DDC5";
paths = (
{
closed = 1;
nodes = (
"432 426 LINE",
"414 391 LINE",
"352 455 OFFCURVE",
"283 456 OFFCURVE",
"256 456 CURVE SMOOTH",
"110 456 OFFCURVE",
"33 325 OFFCURVE",
"33 181 CURVE SMOOTH",
"33 84 OFFCURVE",
"89 -6 OFFCURVE",
"193 -6 CURVE SMOOTH",
"250 -6 OFFCURVE",
"325 19 OFFCURVE",
"412 90 CURVE",
"369 36 LINE",
"349 128 LINE",
"394 100 LINE",
"330 68 OFFCURVE",
"284 56 OFFCURVE",
"246 56 CURVE SMOOTH",
"132 56 OFFCURVE",
"101 166 OFFCURVE",
"101 223 CURVE SMOOTH",
"101 315 OFFCURVE",
"142 409 OFFCURVE",
"229 409 CURVE SMOOTH",
"277 409 OFFCURVE",
"323 391 OFFCURVE",
"357 336 CURVE",
"311 332 LINE"
);
},
{
closed = 1;
nodes = (
"285 279 LINE",
"316 266 LINE",
"347 297 OFFCURVE",
"376 331 OFFCURVE",
"403 370 CURVE",
"401 403 LINE",
"345 428 LINE"
);
}
);
width = 395;
}
);
},
{
glyphname = e.002;
lastChange = "2017-07-07 15:36:28 +0000";
layers = (
{
background = {
paths = (
{
closed = 1;
nodes = (
"310 67 LINE",
"160 15 OFFCURVE",
"99 84 OFFCURVE",
"99 209 CURVE SMOOTH",
"99 266 OFFCURVE",
"111 370 OFFCURVE",
"131 403 CURVE",
"179 418 OFFCURVE",
"255 413 OFFCURVE",
"262 296 CURVE",
"330 286 LINE",
"336 429 OFFCURVE",
"265 459 OFFCURVE",
"204 459 CURVE",
"176 459 OFFCURVE",
"128 445 OFFCURVE",
"90 418 CURVE",
"52 330 OFFCURVE",
"27 250 OFFCURVE",
"30 147 CURVE SMOOTH",
"33 64 OFFCURVE",
"90 -6 OFFCURVE",
"176 -6 CURVE SMOOTH",
"210 -6 OFFCURVE",
"277 5 OFFCURVE",
"323 42 CURVE"
);
},
{
closed = 1;
nodes = (
"69 163 LINE",
"160 202 OFFCURVE",
"248 242 OFFCURVE",
"330 286 CURVE",
"282 314 LINE",
"212 270 OFFCURVE",
"141 231 OFFCURVE",
"70 192 CURVE"
);
}
);
};
backgroundImage = {
crop = "{{0, 0}, {661, 1280}}";
imagePath = "../finale Skizzen/ce.jpg";
locked = "1";
transform = "{0.9482, 0, 0, 0.9538, -47, -77}";
};
layerId = "E3DDE12C-3A5F-4385-A6FD-0C1D1DE2DDC5";
paths = (
{
closed = 1;
nodes = (
"363 146 LINE",
"388 116 LINE",
"375 94 OFFCURVE",
"304 53 OFFCURVE",
"249 53 CURVE SMOOTH",
"139 53 OFFCURVE",
"98 156 OFFCURVE",
"98 235 CURVE SMOOTH",
"98 315 OFFCURVE",
"149 409 OFFCURVE",
"236 409 CURVE SMOOTH",
"284 409 OFFCURVE",
"316 375 OFFCURVE",
"337 332 CURVE",
"388 368 LINE",
"388 405 LINE",
"338 460 OFFCURVE",
"287 456 OFFCURVE",
"263 456 CURVE SMOOTH",
"117 456 OFFCURVE",
"30 325 OFFCURVE",
"30 193 CURVE SMOOTH",
"30 84 OFFCURVE",
"96 -9 OFFCURVE",
"206 -9 CURVE SMOOTH",
"276 -9 OFFCURVE",
"365 48 OFFCURVE",
"402 89 CURVE",
"398 29 LINE"
);
},
{
closed = 1;
nodes = (
"119 114 LINE",
"215 199 OFFCURVE",
"304 283 OFFCURVE",
"388 366 CURVE",
"388 392 LINE",
"360 413 LINE",
"96 136 LINE"
);
},
{
closed = 1;
nodes = (
"297 345 LINE",
"337 345 LINE",
"337 388 LINE",
"297 388 LINE"
);
}
);
width = 418;
}
);
},
{
glyphname = zero;
lastChange = "2017-07-04 09:42:12 +0000";
layers = (
{
background = {
paths = (
{
closed = 1;
nodes = (
"223 509 OFFCURVE",
"151 493 OFFCURVE",
"109 466 CURVE",
"45 354 OFFCURVE",
"30 274 OFFCURVE",
"30 201 CURVE SMOOTH",
"30 71 OFFCURVE",
"130 -12 OFFCURVE",
"223 -12 CURVE SMOOTH",
"259 -12 OFFCURVE",
"332 -8 OFFCURVE",
"383 33 CURVE",
"438 126 OFFCURVE",
"464 223 OFFCURVE",
"464 304 CURVE SMOOTH",
"464 440 OFFCURVE",
"348 509 OFFCURVE",
"255 509 CURVE SMOOTH"
);
},
{
closed = 1;
nodes = (
"106 351 OFFCURVE",
"132 415 OFFCURVE",
"153 447 CURVE",
"279 472 OFFCURVE",
"389 398 OFFCURVE",
"389 213 CURVE SMOOTH",
"389 155 OFFCURVE",
"362 76 OFFCURVE",
"346 57 CURVE",
"228 36 OFFCURVE",
"106 107 OFFCURVE",
"106 274 CURVE SMOOTH"
);
}
);
};
backgroundImage = {
crop = "{{0, 0}, {1280, 636}}";
imagePath = "../finale Skizzen/012.jpg";
locked = "1";
transform = "{1.1312, 0, 0, 1.1312, -104, -82}";
};
layerId = "E3DDE12C-3A5F-4385-A6FD-0C1D1DE2DDC5";
paths = (
{
closed = 1;
nodes = (
"357 367 LINE",
"394 389 OFFCURVE",
"424 422 OFFCURVE",
"449 467 CURVE",
"431 428 LINE",
"366 520 OFFCURVE",
"294 514 OFFCURVE",
"263 514 CURVE SMOOTH",
"117 514 OFFCURVE",
"30 367 OFFCURVE",
"30 218 CURVE SMOOTH",
"30 96 OFFCURVE",
"96 -9 OFFCURVE",
"206 -9 CURVE SMOOTH",
"343 -9 OFFCURVE",
"453 125 OFFCURVE",
"453 280 CURVE SMOOTH",
"453 366 OFFCURVE",
"436 415 OFFCURVE",
"384 476 CURVE",
"421 479 LINE",
"313 386 LINE",
"350 433 LINE",
"384 350 OFFCURVE",
"393 319 OFFCURVE",
"393 252 CURVE SMOOTH",
"393 134 OFFCURVE",
"333 61 OFFCURVE",
"249 61 CURVE SMOOTH",
"139 61 OFFCURVE",
"98 177 OFFCURVE",
"98 266 CURVE SMOOTH",
"98 356 OFFCURVE",
"149 461 OFFCURVE",
"236 461 CURVE SMOOTH",
"284 461 OFFCURVE",
"316 423 OFFCURVE",
"337 375 CURVE"
);
}
);
width = 494;
}
);
unicode = 0030;
},
{
glyphname = one;
lastChange = "2017-07-07 13:54:38 +0000";
layers = (
{
background = {
hints = (
{
origin = "{2, 2}";
target = "{2, 3}";
type = Cap;
name = _cap.obenneukurz;
},
{
origin = "{2, 0}";
target = "{2, 1}";
type = Cap;
name = _cap.untenneu;
}
);
paths = (
{
closed = 1;
nodes = (
"189 544 LINE",
"258 470 LINE",
"302 512 LINE",
"234 585 LINE"
);
},
{
closed = 1;
nodes = (
"261 -18 LINE",
"330 -92 LINE",
"374 -50 LINE",
"306 23 LINE"
);
},
{
closed = 1;
nodes = (
"131 52 LINE",
"194 52 LINE",
"217 504 LINE",
"155 504 LINE"
);
}
);
};
backgroundImage = {
crop = "{{0, 0}, {1280, 752}}";
imagePath = "../finale Skizzen/1234.jpg";
locked = "1";
transform = "{1.5092, -0.0527, 0.0527, 1.5092, -102, -347}";
};
layerId = "E3DDE12C-3A5F-4385-A6FD-0C1D1DE2DDC5";
paths = (
{
closed = 1;
nodes = (
"128 145 OFFCURVE",
"132 239 OFFCURVE",
"134 388 CURVE SMOOTH",
"135 468 OFFCURVE",
"96 457 OFFCURVE",
"29 447 CURVE",
"19 480 LINE",
"71 500 OFFCURVE",
"143 518 OFFCURVE",
"205 528 CURVE",
"226 498 LINE",
"206 462 OFFCURVE",
"191 84 OFFCURVE",
"193 61 CURVE",
"294 37 LINE",
"290 11 LINE",
"270 -6 LINE",
"231 0 OFFCURVE",
"207 4 OFFCURVE",
"154 4 CURVE SMOOTH",
"113 4 OFFCURVE",
"73 0 OFFCURVE",
"45 -7 CURVE",
"35 27 LINE",
"125 57 LINE"
);
}
);
width = 315;
}
);
unicode = 0031;
},
{
glyphname = two;
lastChange = "2017-07-07 14:03:27 +0000";
layers = (
{
background = {
paths = (
{
closed = 1;
nodes = (
"55 365 OFFCURVE",
"58 407 OFFCURVE",
"66 443 CURVE",
"95 461 LINE",
"166 450 OFFCURVE",
"242 431 OFFCURVE",
"306 440 CURVE",
"317 468 LINE",
"352 467 OFFCURVE",
"378 456 OFFCURVE",
"395 435 CURVE",
"390 398 OFFCURVE",
"362 367 OFFCURVE",
"322 342 CURVE",
"149 110 LINE",
"204 101 OFFCURVE",
"264 63 OFFCURVE",
"304 63 CURVE SMOOTH",
"328 63 OFFCURVE",
"348 76 OFFCURVE",
"360 117 CURVE",
"385 116 LINE",
"381 40 OFFCURVE",
"348 -9 OFFCURVE",
"292 -9 CURVE SMOOTH",
"222 -9 OFFCURVE",
"179 39 OFFCURVE",
"117 55 CURVE",
"93 -9 LINE",
"61 -11 OFFCURVE",
"25 4 OFFCURVE",
"11 24 CURVE",
"15 59 LINE",
"34 84 OFFCURVE",
"58 104 OFFCURVE",
"85 118 CURVE",
"287 390 LINE",
"160 393 OFFCURVE",
"91 385 OFFCURVE",
"79 324 CURVE",
"59 325 LINE"
);
},
{
closed = 1;
nodes = (
"61 179 LINE",
"28 159 OFFCURVE",
"2 130 OFFCURVE",
"-19 90 CURVE",
"-4 125 LINE",
"53 43 OFFCURVE",
"115 48 OFFCURVE",
"142 48 CURVE SMOOTH",
"269 48 OFFCURVE",
"345 179 OFFCURVE",
"345 311 CURVE SMOOTH",
"345 420 OFFCURVE",
"288 513 OFFCURVE",
"192 513 CURVE SMOOTH",
"73 513 OFFCURVE",
"-23 394 OFFCURVE",
"-23 256 CURVE SMOOTH",
"-23 180 OFFCURVE",
"-8 136 OFFCURVE",
"37 82 CURVE",
"5 79 LINE",
"99 162 LINE",
"67 120 LINE",
"37 194 OFFCURVE",
"29 222 OFFCURVE",
"29 281 CURVE SMOOTH",
"29 386 OFFCURVE",
"82 451 OFFCURVE",
"155 451 CURVE SMOOTH",
"250 451 OFFCURVE",
"286 348 OFFCURVE",
"286 269 CURVE SMOOTH",
"286 189 OFFCURVE",
"242 95 OFFCURVE",
"166 95 CURVE SMOOTH",
"124 95 OFFCURVE",
"96 129 OFFCURVE",
"78 172 CURVE"
);
}
);
};
backgroundImage = {
crop = "{{0, 0}, {1280, 752}}";
imagePath = "../finale Skizzen/1234.jpg";
locked = "1";
transform = "{1.4439, 0, 0, 1.4439, -387, -354}";
};
layerId = "E3DDE12C-3A5F-4385-A6FD-0C1D1DE2DDC5";
paths = (
{
closed = 1;
nodes = (
"229 198 OFFCURVE",
"149 110 CURVE",
"204 101 OFFCURVE",
"264 63 OFFCURVE",
"304 63 CURVE SMOOTH",
"328 63 OFFCURVE",
"348 76 OFFCURVE",
"360 117 CURVE",
"385 116 LINE",
"381 40 OFFCURVE",
"348 -9 OFFCURVE",
"292 -9 CURVE SMOOTH",
"222 -9 OFFCURVE",
"179 39 OFFCURVE",
"117 55 CURVE",
"93 -9 LINE",
"61 -11 OFFCURVE",
"25 4 OFFCURVE",
"11 24 CURVE",
"15 59 LINE",
"34 84 OFFCURVE",
"58 104 OFFCURVE",
"85 118 CURVE",
"170 213 OFFCURVE",
"267 281 OFFCURVE",
"267 370 CURVE SMOOTH",
"267 425 OFFCURVE",
"236 471 OFFCURVE",
"177 471 CURVE SMOOTH",
"144 471 OFFCURVE",
"109 456 OFFCURVE",
"86 423 CURVE",
"68 414 LINE",
"45 430 LINE",
"89 501 OFFCURVE",
"150 528 OFFCURVE",
"205 528 CURVE SMOOTH",
"280 528 OFFCURVE",
"344 473 OFFCURVE",
"344 395 CURVE SMOOTH",
"344 261 OFFCURVE"
);
}
);
width = 395;
}
);
unicode = 0032;
},
{
glyphname = three;
lastChange = "2017-07-07 14:03:56 +0000";
layers = (
{
background = {
paths = (
{
closed = 1;
nodes = (
"130 140 LINE",
"256 179 OFFCURVE",
"372 110 OFFCURVE",
"372 -69 CURVE SMOOTH",
"372 -126 OFFCURVE",
"360 -171 OFFCURVE",
"344 -205 CURVE",
"251 -234 OFFCURVE",
"145 -227 OFFCURVE",
"82 -144 CURVE",
"-1 -185 LINE",
"52 -265 OFFCURVE",
"142 -288 OFFCURVE",
"211 -288 CURVE SMOOTH",
"246 -288 OFFCURVE",
"330 -268 OFFCURVE",
"380 -228 CURVE",
"426 -145 OFFCURVE",
"445 -60 OFFCURVE",
"445 19 CURVE SMOOTH",
"445 151 OFFCURVE",
"332 218 OFFCURVE",
"242 218 CURVE SMOOTH",
"211 218 OFFCURVE",
"166 204 OFFCURVE",
"114 173 CURVE"
);
},
{
closed = 0;
nodes = (
"82 -144 LINE"
);
},
{
closed = 1;
nodes = (
"36 410 LINE",
"172 484 OFFCURVE",
"278 449 OFFCURVE",
"278 295 CURVE SMOOTH",
"278 237 OFFCURVE",
"245 192 OFFCURVE",
"232 176 CURVE",
"263 156 LINE",
"318 206 OFFCURVE",
"355 272 OFFCURVE",
"355 338 CURVE SMOOTH",
"355 452 OFFCURVE",
"269 509 OFFCURVE",
"192 509 CURVE SMOOTH",
"155 509 OFFCURVE",
"81 495 OFFCURVE",
"21 436 CURVE"
);
},
{
closed = 0;
nodes = (
"257 134 LINE"
);
}
);
};
backgroundImage = {
crop = "{{0, 0}, {1280, 752}}";
imagePath = "../finale Skizzen/1234.jpg";
locked = "1";
transform = "{1.5137, 0, 0, 1.5137, -844, -354}";
};
layerId = "E3DDE12C-3A5F-4385-A6FD-0C1D1DE2DDC5";
paths = (
{
closed = 1;
nodes = (
"240 280 OFFCURVE",
"282 322 OFFCURVE",
"282 370 CURVE SMOOTH",
"282 423 OFFCURVE",
"233 466 OFFCURVE",
"186 466 CURVE SMOOTH",
"160 466 OFFCURVE",
"135 457 OFFCURVE",
"117 438 CURVE",
"99 429 LINE",
"74 450 LINE",
"113 509 OFFCURVE",
"166 532 OFFCURVE",
"214 532 CURVE SMOOTH",
"294 532 OFFCURVE",
"363 476 OFFCURVE",
"363 387 CURVE SMOOTH",
"363 310 OFFCURVE",
"300 258 OFFCURVE",
"221 210 CURVE",
"181 237 LINE"
);
},
{
closed = 1;
nodes = (
"350 -11 OFFCURVE",
"350 70 CURVE SMOOTH",
"350 204 OFFCURVE",
"235 214 OFFCURVE",
"146 202 CURVE",
"142 240 LINE",
"147 246 OFFCURVE",
"151 253 OFFCURVE",
"159 255 CURVE SMOOTH",
"278 286 OFFCURVE",
"431 256 OFFCURVE",
"431 97 CURVE SMOOTH",
"431 -93 OFFCURVE",
"214 -228 OFFCURVE",
"5 -138 CURVE",
"5 -113 OFFCURVE",
"13 -90 OFFCURVE",
"29 -71 CURVE",
"59 -67 LINE",
"95 -96 OFFCURVE",
"143 -114 OFFCURVE",
"188 -114 CURVE SMOOTH",
"282 -114 OFFCURVE"
);
}
);
width = 455;
}
);
unicode = 0033;
},
{
glyphname = four;
lastChange = "2017-07-07 13:55:42 +0000";
layers = (
{
background = {
paths = (
{
closed = 1;
nodes = (
"34 32 OFFCURVE",
"19 10 OFFCURVE",
"10 -1 CURVE",
"31 -20 LINE",
"154 -11 LINE",
"457 -14 LINE",
"478 -3 OFFCURVE",
"492 7 OFFCURVE",
"509 24 CURVE",
"489 46 LINE",
"115 47 LINE",
"48 43 LINE"
);
},
{
closed = 1;
nodes = (
"204 383 OFFCURVE",
"140 213 OFFCURVE",
"10 -1 CURVE",
"69 17 LINE",
"180 175 OFFCURVE",
"281 362 OFFCURVE",
"313 509 CURVE",
"216 509 LINE"
);
},
{
closed = 1;
nodes = (
"355 259 LINE",
"337 253 OFFCURVE",
"321 244 OFFCURVE",
"305 234 CURVE",
"305 -20 OFFCURVE",
"312 -75 OFFCURVE",
"298 -269 CURVE",
"319 -291 LINE",
"338 -288 OFFCURVE",
"362 -282 OFFCURVE",
"379 -274 CURVE",
"371 -38 OFFCURVE",
"371 -21 OFFCURVE",
"378 235 CURVE"
);
}
);
};
backgroundImage = {
crop = "{{0, 0}, {1280, 752}}";
imagePath = "../finale Skizzen/1234.jpg";
locked = "1";
transform = "{1.5972, 0, 0, 1.5972, -1405, -391}";
};
layerId = "E3DDE12C-3A5F-4385-A6FD-0C1D1DE2DDC5";
paths = (
{
closed = 1;
nodes = (
"54 62 OFFCURVE",
"39 40 OFFCURVE",
"30 29 CURVE",
"51 10 LINE",
"174 19 LINE",
"487 16 LINE",
"492 30 OFFCURVE",
"495 43 OFFCURVE",
"499 64 CURVE",
"479 90 LINE",
"369 84 OFFCURVE",
"257 80 OFFCURVE",
"142 77 CURVE",
"68 73 LINE"
);
},
{
closed = 1;
nodes = (
"196 383 OFFCURVE",
"141 226 OFFCURVE",
"30 29 CURVE",
"96 47 LINE",
"195 202 OFFCURVE",
"285 385 OFFCURVE",
"313 529 CURVE",
"287 542 LINE",
"206 499 LINE"
);
},
{
closed = 1;
nodes = (
"355 249 LINE",
"337 243 OFFCURVE",
"321 234 OFFCURVE",
"305 224 CURVE",
"305 31 OFFCURVE",
"312 -11 OFFCURVE",
"298 -159 CURVE",
"319 -181 LINE",
"338 -178 OFFCURVE",
"362 -172 OFFCURVE",
"379 -164 CURVE",
"371 16 OFFCURVE",
"371 29 OFFCURVE",
"378 225 CURVE"
);
}
);
width = 521;
}
);
unicode = 0034;
},
{
glyphname = five;
lastChange = "2017-07-07 14:02:33 +0000";
layers = (
{
background = {
paths = (
{
closed = 1;
nodes = (
"488 585 OFFCURVE",
"485 543 OFFCURVE",
"477 507 CURVE",
"448 489 LINE",
"377 500 OFFCURVE",
"301 519 OFFCURVE",
"237 510 CURVE",
"226 482 LINE",
"191 483 OFFCURVE",
"165 494 OFFCURVE",
"148 515 CURVE",
"153 552 OFFCURVE",
"181 583 OFFCURVE",
"221 608 CURVE",
"394 840 LINE",
"339 849 OFFCURVE",
"279 887 OFFCURVE",
"239 887 CURVE SMOOTH",
"215 887 OFFCURVE",
"195 874 OFFCURVE",
"183 833 CURVE",
"158 834 LINE",
"162 910 OFFCURVE",
"195 959 OFFCURVE",
"251 959 CURVE SMOOTH",
"321 959 OFFCURVE",
"364 911 OFFCURVE",
"426 895 CURVE",
"450 959 LINE",
"482 961 OFFCURVE",
"518 946 OFFCURVE",
"532 926 CURVE",
"528 891 LINE",
"509 866 OFFCURVE",
"485 846 OFFCURVE",
"458 832 CURVE",
"256 560 LINE",
"383 557 OFFCURVE",
"452 565 OFFCURVE",
"464 626 CURVE",
"484 625 LINE"
);
}
);
};
layerId = "E3DDE12C-3A5F-4385-A6FD-0C1D1DE2DDC5";
paths = (
{
closed = 1;
nodes = (
"138 -114 OFFCURVE",
"95 -96 OFFCURVE",
"59 -67 CURVE",
"29 -71 LINE",
"13 -90 OFFCURVE",
"5 -113 OFFCURVE",
"5 -138 CURVE",
"205 -228 OFFCURVE",
"413 -93 OFFCURVE",
"413 97 CURVE SMOOTH",
"413 296 OFFCURVE",
"249 329 OFFCURVE",
"121 295 CURVE",
"101 253 LINE",
"108 242 LINE",
"206 253 OFFCURVE",
"332 245 OFFCURVE",
"332 70 CURVE SMOOTH",
"332 -11 OFFCURVE",
"268 -114 OFFCURVE",
"180 -114 CURVE SMOOTH"
);
},
{
closed = 1;
nodes = (
"189 355 OFFCURVE",
"208 435 OFFCURVE",
"224 515 CURVE",
"192 520 LINE",
"137 499 LINE",
"131 433 OFFCURVE",
"124 366 OFFCURVE",
"101 253 CURVE",
"159 270 LINE"
);
},
{
closed = 1;
nodes = (
"185 471 LINE",
"243 477 OFFCURVE",
"316 463 OFFCURVE",
"390 449 CURVE",
"409 472 OFFCURVE",
"423 505 OFFCURVE",
"427 544 CURVE",
"404 545 LINE",
"385 517 OFFCURVE",
"320 516 OFFCURVE",
"192 520 CURVE"
);
}
);
width = 467;
}
);
unicode = 0035;
},
{
glyphname = six;
lastChange = "2017-07-07 13:58:05 +0000";
layers = (
{
background = {
components = (
{
name = _part.bogen;
transform = "{1, 0, 0, 1, 0, -80}";
}
);
};
layerId = "E3DDE12C-3A5F-4385-A6FD-0C1D1DE2DDC5";
paths = (
{
closed = 1;
nodes = (
"423 98 OFFCURVE",
"322 -9 OFFCURVE",
"196 -9 CURVE SMOOTH",
"86 -9 OFFCURVE",
"20 84 OFFCURVE",
"20 193 CURVE SMOOTH",
"20 379 OFFCURVE",
"131 538 OFFCURVE",
"311 670 CURVE",
"332 644 LINE",
"321 625 LINE",
"161 484 OFFCURVE",
"98 356 OFFCURVE",
"98 235 CURVE SMOOTH",
"98 156 OFFCURVE",
"136 53 OFFCURVE",
"239 53 CURVE SMOOTH",
"306 53 OFFCURVE",
"353 106 OFFCURVE",
"353 193 CURVE SMOOTH",
"353 260 OFFCURVE",
"299 323 OFFCURVE",
"217 317 CURVE",
"76 240 LINE",
"75 273 LINE",
"222 374 LINE",
"320 399 OFFCURVE",
"423 330 OFFCURVE",
"423 218 CURVE SMOOTH"
);
}
);
width = 443;
}
);
unicode = 0036;
},
{
glyphname = seven;
lastChange = "2017-07-07 12:53:09 +0000";
layers = (
{
background = {
paths = (
{
closed = 1;
nodes = (
"156 -8 OFFCURVE",
"214 162 OFFCURVE",
"331 376 CURVE",
"265 358 LINE",
"162 190 OFFCURVE",
"68 -8 OFFCURVE",
"38 -164 CURVE",
"64 -177 LINE",
"145 -134 LINE"
);
}
);
};
layerId = "E3DDE12C-3A5F-4385-A6FD-0C1D1DE2DDC5";
paths = (
{
closed = 1;
nodes = (
"78 29 OFFCURVE",
"181 239 OFFCURVE",
"327 460 CURVE",
"157 463 OFFCURVE",
"65 471 OFFCURVE",
"49 394 CURVE",
"29 395 LINE",
"25 435 OFFCURVE",
"28 477 OFFCURVE",
"36 513 CURVE",
"65 531 LINE",
"156 520 OFFCURVE",
"254 501 OFFCURVE",
"336 510 CURVE",
"347 538 LINE",
"382 537 OFFCURVE",
"408 526 OFFCURVE",
"425 505 CURVE",
"420 468 OFFCURVE",
"392 437 OFFCURVE",
"352 412 CURVE",
"241 231 OFFCURVE",
"161 38 OFFCURVE",
"145 -134 CURVE",
"63 -177 LINE",
"38 -164 LINE"
);
}
);
width = 445;
}
);
unicode = 0037;
},
{
glyphname = eight;
lastChange = "2017-07-07 13:59:28 +0000";
layers = (
{
background = {
paths = (
{
closed = 1;
nodes = (
"423 98 OFFCURVE",
"322 -9 OFFCURVE",
"196 -9 CURVE SMOOTH",
"86 -9 OFFCURVE",
"20 84 OFFCURVE",
"20 193 CURVE SMOOTH",
"20 379 OFFCURVE",
"131 538 OFFCURVE",
"311 670 CURVE",
"322 654 LINE",
"311 635 LINE",
"158 490 OFFCURVE",
"98 359 OFFCURVE",
"98 235 CURVE SMOOTH",
"98 156 OFFCURVE",
"136 53 OFFCURVE",
"239 53 CURVE SMOOTH",
"306 53 OFFCURVE",
"353 106 OFFCURVE",
"353 193 CURVE SMOOTH",
"353 260 OFFCURVE",
"299 323 OFFCURVE",
"217 317 CURVE",
"76 250 LINE",
"75 273 LINE",
"222 374 LINE",
"320 399 OFFCURVE",
"423 330 OFFCURVE",
"423 218 CURVE SMOOTH"
);
},
{
closed = 1;
nodes = (
"423 98 OFFCURVE",
"322 -9 OFFCURVE",
"196 -9 CURVE SMOOTH",
"86 -9 OFFCURVE",
"20 84 OFFCURVE",
"20 193 CURVE SMOOTH",
"20 379 OFFCURVE",
"131 538 OFFCURVE",
"311 670 CURVE",
"322 654 LINE",
"311 635 LINE",
"158 490 OFFCURVE",
"98 359 OFFCURVE",
"98 235 CURVE SMOOTH",
"98 156 OFFCURVE",
"136 53 OFFCURVE",
"239 53 CURVE SMOOTH",
"306 53 OFFCURVE",
"353 106 OFFCURVE",
"353 193 CURVE SMOOTH",
"353 260 OFFCURVE",
"299 323 OFFCURVE",
"217 317 CURVE",
"76 250 LINE",
"75 273 LINE",
"222 374 LINE",
"320 399 OFFCURVE",
"423 330 OFFCURVE",
"423 218 CURVE SMOOTH"
);
}
);
};
layerId = "E3DDE12C-3A5F-4385-A6FD-0C1D1DE2DDC5";
paths = (
{
closed = 1;
nodes = (
"96 306 LINE",
"45 254 OFFCURVE",
"24 201 OFFCURVE",
"24 154 CURVE SMOOTH",
"24 61 OFFCURVE",
"105 -9 OFFCURVE",
"196 -9 CURVE SMOOTH",
"322 -9 OFFCURVE",
"423 89 OFFCURVE",
"423 198 CURVE SMOOTH",
"423 416 OFFCURVE",
"120 362 OFFCURVE",
"120 518 CURVE SMOOTH",
"120 570 OFFCURVE",
"154 618 OFFCURVE",
"216 618 CURVE SMOOTH",
"285 618 OFFCURVE",
"326 561 OFFCURVE",
"326 506 CURVE SMOOTH",
"326 474 OFFCURVE",
"312 443 OFFCURVE",
"282 424 CURVE SMOOTH"
);
},
{
closed = 1;
nodes = (
"381 454 OFFCURVE",
"397 498 OFFCURVE",
"397 538 CURVE SMOOTH",
"397 615 OFFCURVE",
"340 680 OFFCURVE",
"251 680 CURVE SMOOTH",
"137 680 OFFCURVE",
"50 591 OFFCURVE",
"50 493 CURVE SMOOTH",
"50 289 OFFCURVE",
"353 343 OFFCURVE",
"353 173 CURVE SMOOTH",
"353 98 OFFCURVE",
"306 53 OFFCURVE",
"239 53 CURVE SMOOTH",
"159 53 OFFCURVE",
"110 118 OFFCURVE",
"110 187 CURVE SMOOTH",
"110 232 OFFCURVE",
"130 279 OFFCURVE",
"176 310 CURVE SMOOTH",
"344 416 LINE"
);
}
);
width = 443;
}
);
unicode = 0038;
},
{
glyphname = nine;
lastChange = "2017-07-07 14:00:27 +0000";
layers = (
{
layerId = "E3DDE12C-3A5F-4385-A6FD-0C1D1DE2DDC5";
paths = (
{
closed = 1;
nodes = (
"17 410 OFFCURVE",
"118 512 OFFCURVE",
"244 512 CURVE SMOOTH",
"354 512 OFFCURVE",
"420 419 OFFCURVE",
"420 310 CURVE SMOOTH",
"420 124 OFFCURVE",
"298 -35 OFFCURVE",
"99 -167 CURVE",
"78 -141 LINE",
"89 -122 LINE",
"271 19 OFFCURVE",
"342 147 OFFCURVE",
"342 268 CURVE SMOOTH",
"342 347 OFFCURVE",
"304 450 OFFCURVE",
"201 450 CURVE SMOOTH",
"134 450 OFFCURVE",
"87 401 OFFCURVE",
"87 320 CURVE SMOOTH",
"87 248 OFFCURVE",
"141 180 OFFCURVE",
"223 186 CURVE",
"364 263 LINE",
"365 230 LINE",
"218 129 LINE",
"120 102 OFFCURVE",
"17 176 OFFCURVE",
"17 295 CURVE SMOOTH"
);
}
);
width = 600;
}
);
unicode = 0039;
},
{
glyphname = dotaccentcomb;
lastChange = "2017-06-29 10:11:33 +0000";
layers = (
{
anchors = (
{
name = top;
position = "{114, 452}";
}
);
layerId = "E3DDE12C-3A5F-4385-A6FD-0C1D1DE2DDC5";
paths = (
{
closed = 1;
nodes = (
"69 590 LINE",
"87 570 LINE",
"111 576 OFFCURVE",
"135 586 OFFCURVE",
"159 600 CURVE",
"161 626 OFFCURVE",
"163 652 OFFCURVE",
"165 677 CURVE",
"146 698 LINE",
"122 692 OFFCURVE",
"98 683 OFFCURVE",
"73 668 CURVE"
);
}
);
width = 600;
}
);
unicode = 0307;
},
{
export = 0;
glyphname = _part.bauch;
lastChange = "2017-06-29 11:58:29 +0000";
layers = (
{
backgroundImage = {
crop = "{{0, 0}, {1280, 1140}}";
imagePath = "../finale Skizzen/neu runder bauch.jpg";
transform = "{1.3075, 0.0228, -0.0228, 1.3075, -1126.042, -732}";
};
layerId = "E3DDE12C-3A5F-4385-A6FD-0C1D1DE2DDC5";
paths = (
{
closed = 1;
nodes = (
"358 445 LINE",
"160 499 OFFCURVE",
"31 350 OFFCURVE",
"31 181 CURVE SMOOTH",
"31 32 OFFCURVE",
"138 -35 OFFCURVE",
"248 3 CURVE",
"202 -45 LINE",
"360 311 LINE",
"344 340 LINE",
"160 12 LINE",
"210 58 LINE",
"134 79 OFFCURVE",
"101 150 OFFCURVE",
"101 223 CURVE SMOOTH",
"101 347 OFFCURVE",
"200 476 OFFCURVE",
"360 370 CURVE"
);
}
);
width = 478;
}
);
},
{
export = 0;
glyphname = _cap.stammende;
lastChange = "2017-06-28 18:34:59 +0000";
layers = (
{
anchors = (
{
name = "new anchor";
position = "{2, 227}";
}
);
layerId = "E3DDE12C-3A5F-4385-A6FD-0C1D1DE2DDC5";
paths = (
{
closed = 0;
nodes = (
"0 225 LINE",
"-2 151 OFFCURVE",
"-5 79 OFFCURVE",
"-11 9 CURVE",
"10 -13 LINE",
"57 0 OFFCURVE",
"121 32 OFFCURVE",
"153 62 CURVE",
"141 79 LINE",
"18 38 LINE",
"65 9 LINE",
"65 225 LINE"
);
}
);
width = 478;
}
);
},
{
export = 0;
glyphname = _cap.knubbel;
lastChange = "2017-06-28 17:55:57 +0000";
layers = (
{
layerId = "E3DDE12C-3A5F-4385-A6FD-0C1D1DE2DDC5";
paths = (
{
closed = 0;
nodes = (
"0 227 LINE",
"-2 174 OFFCURVE",
"-4 117 OFFCURVE",
"-8 61 CURVE",
"4 131 LINE",
"-7 102 OFFCURVE",
"-26 68 OFFCURVE",
"-26 41 CURVE SMOOTH",
"-26 14 OFFCURVE",
"-12 -4 OFFCURVE",
"16 -15 CURVE",
"74 10 LINE",
"65 81 OFFCURVE",
"63 154 OFFCURVE",
"65 227 CURVE"
);
}
);
width = 478;
}
);
},
{
export = 0;
glyphname = _cap.obereserife;
lastChange = "2017-06-28 18:18:37 +0000";
layers = (
{
layerId = "E3DDE12C-3A5F-4385-A6FD-0C1D1DE2DDC5";
paths = (
{
closed = 0;
nodes = (
"0 289 LINE",
"-1 153 OFFCURVE",
"-5 40 OFFCURVE",
"-16 14 CURVE",
"6 -10 LINE",
"61 0 OFFCURVE",
"103 20 OFFCURVE",
"143 47 CURVE",
"132 67 LINE",
"65 59 LINE",
"64 136 OFFCURVE",
"64 213 OFFCURVE",
"64 289 CURVE"
);
}
);
width = 454;
}
);
},
{
export = 0;
glyphname = _part.bogen;
lastChange = "2017-06-29 08:59:06 +0000";
layers = (
{
anchors = (
{
name = _connect;
position = "{109, 0}";
},
{
name = connect;
position = "{379, 0}";
}
);
layerId = "E3DDE12C-3A5F-4385-A6FD-0C1D1DE2DDC5";
paths = (
{
closed = 1;
nodes = (
"108 106 LINE",
"298 443 LINE",
"243 390 LINE",
"292 390 OFFCURVE",
"333 339 OFFCURVE",
"333 245 CURVE SMOOTH",
"333 163 OFFCURVE",
"319 82 OFFCURVE",
"313 0 CURVE",
"344 -20 LINE",
"390 -8 OFFCURVE",
"432 15 OFFCURVE",
"470 46 CURVE",
"466 66 LINE",
"388 49 LINE",
"384 51 LINE",
"387 123 OFFCURVE",
"402 202 OFFCURVE",
"402 277 CURVE SMOOTH",
"402 406 OFFCURVE",
"321 494 OFFCURVE",
"201 442 CURVE",
"252 494 LINE",
"103 159 LINE"
);
}
);
width = 477;
userData = {
PartSelection = {
crotchDepth = 2;
shoulderWidh = 2;
};
};
},
{
anchors = (
{
name = _connect;
position = "{109, 0}";
},
{
name = connect;
position = "{379, 0}";
}
);
associatedMasterId = "E3DDE12C-3A5F-4385-A6FD-0C1D1DE2DDC5";
layerId = "18EAB7CF-9E0B-40D4-B0D9-B4B59782CE99";
name = NarrowSholder;
paths = (
{
closed = 1;
nodes = (
"108 106 LINE",
"290 443 LINE",
"235 390 LINE",
"279 390 OFFCURVE",
"317 339 OFFCURVE",
"317 245 CURVE SMOOTH",
"317 163 OFFCURVE",
"303 82 OFFCURVE",
"297 0 CURVE",
"328 -20 LINE",
"374 -8 OFFCURVE",
"416 15 OFFCURVE",
"464 46 CURVE",
"460 66 LINE",
"372 49 LINE",
"368 51 LINE",
"371 123 OFFCURVE",
"386 202 OFFCURVE",
"386 277 CURVE SMOOTH",
"386 406 OFFCURVE",
"308 494 OFFCURVE",
"193 442 CURVE",
"244 494 LINE",
"103 159 LINE"
);
}
);
width = 477;
userData = {
PartSelection = {
crotchDepth = 2;
shoulderWidh = 1;
};
};
},
{
anchors = (
{
name = _connect;
position = "{109, 0}";
},
{
name = connect;
position = "{379, 0}";
}
);
associatedMasterId = "E3DDE12C-3A5F-4385-A6FD-0C1D1DE2DDC5";
layerId = "3FA632C3-4053-49EC-BADF-7344590C9B41";
name = LowCrotch;
paths = (
{
closed = 1;
nodes = (
"108 96 LINE",
"298 443 LINE",
"243 390 LINE",
"292 390 OFFCURVE",
"333 339 OFFCURVE",
"333 245 CURVE SMOOTH",
"333 163 OFFCURVE",
"319 82 OFFCURVE",
"313 0 CURVE",
"344 -20 LINE",
"390 -8 OFFCURVE",
"432 15 OFFCURVE",
"470 46 CURVE",
"466 66 LINE",
"388 49 LINE",
"384 51 LINE",
"387 123 OFFCURVE",
"402 202 OFFCURVE",
"402 277 CURVE SMOOTH",
"402 406 OFFCURVE",
"321 494 OFFCURVE",
"201 442 CURVE",
"252 494 LINE",
"103 149 LINE"
);
}
);
width = 477;
userData = {
PartSelection = {
crotchDepth = 1;
shoulderWidh = 2;
};
};
}
);
partsSettings = (
{
name = shoulderWidh;
bottomName = Low;
bottomValue = 0;
topName = High;
topValue = 100;
},
{
name = crotchDepth;
bottomName = Low;
bottomValue = -100;
topName = High;
topValue = 0;
}
);
},
{
export = 0;
glyphname = _cap.knubbelneu;
lastChange = "2017-06-29 12:27:54 +0000";
layers = (
{
anchors = (
{
name = connect;
position = "{62, 0}";
}
);
layerId = "E3DDE12C-3A5F-4385-A6FD-0C1D1DE2DDC5";
paths = (
{
closed = 0;
nodes = (
"0 243 LINE",
"0 198 OFFCURVE",
"3 155 OFFCURVE",
"-3 106 CURVE",
"14 175 LINE",
"-15 108 OFFCURVE",
"-32 55 OFFCURVE",
"-27 19 CURVE",
"-5 -8 OFFCURVE",
"22 -12 OFFCURVE",
"51 -14 CURVE",
"56 -2 OFFCURVE",
"61 10 OFFCURVE",
"66 22 CURVE",
"64 96 OFFCURVE",
"63 169 OFFCURVE",
"63 243 CURVE"
);
}
);
width = 478;
}
);
},
{
export = 0;
glyphname = _cap.untenneu;
lastChange = "2017-06-28 21:12:21 +0000";
layers = (
{
layerId = "E3DDE12C-3A5F-4385-A6FD-0C1D1DE2DDC5";
paths = (
{
closed = 0;
nodes = (
"0 209 LINE",
"0 139 OFFCURVE",
"-1 70 OFFCURVE",
"-3 0 CURVE",
"29 -20 LINE",
"73 -8 OFFCURVE",
"117 15 OFFCURVE",
"152 46 CURVE",
"146 66 LINE",
"69 49 LINE",
"65 51 LINE",
"63 102 OFFCURVE",
"61 155 OFFCURVE",
"62 209 CURVE"
);
}
);
width = 492;
}
);
},
{
export = 0;
glyphname = _cap.obenneu;
lastChange = "2017-06-28 21:36:29 +0000";
layers = (
{
layerId = "E3DDE12C-3A5F-4385-A6FD-0C1D1DE2DDC5";
paths = (
{
closed = 0;
nodes = (
"0 469 LINE",
"-2 304 OFFCURVE",
"-4 113 OFFCURVE",
"-16 2 CURVE",
"7 -27 LINE",
"57 -26 OFFCURVE",
"109 -15 OFFCURVE",
"156 -4 CURVE",
"150 26 LINE",
"80 22 OFFCURVE",
"76 43 OFFCURVE",
"71 88 CURVE SMOOTH",
"65 139 OFFCURVE",
"62 333 OFFCURVE",
"63 469 CURVE SMOOTH"
);
}
);
width = 477;
}
);
},
{
export = 0;
glyphname = _cap.obenneukurz;
lastChange = "2017-06-29 11:51:37 +0000";
layers = (
{
layerId = "E3DDE12C-3A5F-4385-A6FD-0C1D1DE2DDC5";
paths = (
{
closed = 0;
nodes = (
"0 209 LINE",
"-1 134 OFFCURVE",
"-1 99 OFFCURVE",
"-9 19 CURVE",
"11 -10 LINE",
"54 -9 OFFCURVE",
"106 2 OFFCURVE",
"153 13 CURVE",
"147 43 LINE",
"77 39 OFFCURVE",
"71 60 OFFCURVE",
"68 105 CURVE SMOOTH",
"66 135 OFFCURVE",
"62 160 OFFCURVE",
"62 209 CURVE"
);
}
);
width = 477;
}
);
},
{
export = 0;
glyphname = _part.bogenknubbel;
lastChange = "2017-06-29 09:09:46 +0000";
layers = (
{
anchors = (
{
name = _connect;
position = "{109, 0}";
},
{
name = connect;
position = "{379, 0}";
}
);
background = {
paths = (
{
closed = 0;
nodes = (
"334 243 LINE",
"330 198 OFFCURVE",
"331 155 OFFCURVE",
"322 106 CURVE",
"343 175 LINE",
"310 108 OFFCURVE",
"289 55 OFFCURVE",
"291 19 CURVE",
"312 -8 OFFCURVE",
"338 -12 OFFCURVE",
"367 -14 CURVE",
"373 -2 OFFCURVE",
"379 10 OFFCURVE",
"384 22 CURVE",
"388 96 OFFCURVE",
"391 169 OFFCURVE",
"396 243 CURVE"
);
}
);
};
layerId = "E3DDE12C-3A5F-4385-A6FD-0C1D1DE2DDC5";
paths = (
{
closed = 1;
nodes = (
"108 106 LINE",
"298 443 LINE",
"243 390 LINE",
"292 390 OFFCURVE",
"333 339 OFFCURVE",
"333 245 CURVE SMOOTH",
"333 201 OFFCURVE",
"330 156 OFFCURVE",
"323 113 CURVE",
"340 173 LINE",
"317 118 OFFCURVE",
"291 68 OFFCURVE",
"291 19 CURVE",
"307 -1 OFFCURVE",
"331 -14 OFFCURVE",
"367 -14 CURVE",
"384 22 LINE",
"385 51 LINE SMOOTH",
"388 123 OFFCURVE",
"402 202 OFFCURVE",
"402 277 CURVE SMOOTH",
"402 406 OFFCURVE",
"321 494 OFFCURVE",
"201 442 CURVE",
"252 494 LINE",
"103 159 LINE"
);
}
);
width = 477;
userData = {
PartSelection = {
crotchDepth = 2;
shoulderWidh = 2;
};
};
},
{
anchors = (
{
name = _connect;
position = "{109, 0}";
},
{
name = connect;
position = "{379, 0}";
}
);
associatedMasterId = "E3DDE12C-3A5F-4385-A6FD-0C1D1DE2DDC5";
layerId = "18EAB7CF-9E0B-40D4-B0D9-B4B59782CE99";
name = NarrowSholder;
paths = (
{
closed = 1;
nodes = (
"108 106 LINE",
"290 443 LINE",
"235 390 LINE",
"280 390 OFFCURVE",
"317 339 OFFCURVE",
"317 245 CURVE SMOOTH",
"317 201 OFFCURVE",
"314 156 OFFCURVE",
"307 113 CURVE",
"324 173 LINE",
"301 118 OFFCURVE",
"275 68 OFFCURVE",
"275 19 CURVE",
"291 -1 OFFCURVE",
"315 -14 OFFCURVE",
"351 -14 CURVE",
"368 22 LINE",
"369 51 LINE SMOOTH",
"372 123 OFFCURVE",
"386 202 OFFCURVE",
"386 277 CURVE SMOOTH",
"386 406 OFFCURVE",
"308 494 OFFCURVE",
"193 442 CURVE",
"244 494 LINE",
"103 159 LINE"
);
}
);
width = 477;
userData = {
PartSelection = {
crotchDepth = 2;
shoulderWidh = 1;
};
};
},
{
anchors = (
{
name = _connect;
position = "{109, 0}";
},
{
name = connect;
position = "{379, 0}";
}
);
associatedMasterId = "E3DDE12C-3A5F-4385-A6FD-0C1D1DE2DDC5";
layerId = "3FA632C3-4053-49EC-BADF-7344590C9B41";
name = LowCrotch;
paths = (
{
closed = 1;
nodes = (
"108 96 LINE",
"298 443 LINE",
"243 390 LINE",
"292 390 OFFCURVE",
"333 339 OFFCURVE",
"333 245 CURVE SMOOTH",
"333 201 OFFCURVE",
"330 156 OFFCURVE",
"323 113 CURVE",
"340 173 LINE",
"317 118 OFFCURVE",
"291 68 OFFCURVE",
"291 19 CURVE",
"307 -1 OFFCURVE",
"331 -14 OFFCURVE",
"367 -14 CURVE",
"384 22 LINE",
"385 51 LINE SMOOTH",
"388 123 OFFCURVE",
"402 202 OFFCURVE",
"402 277 CURVE SMOOTH",
"402 406 OFFCURVE",
"321 494 OFFCURVE",
"201 442 CURVE",
"252 494 LINE",
"103 149 LINE"
);
}
);
width = 477;
userData = {
PartSelection = {
crotchDepth = 1;
shoulderWidh = 2;
};
};
}
);
partsSettings = (
{
name = shoulderWidh;
bottomName = Low;
bottomValue = 0;
topName = High;
topValue = 100;
},
{
name = crotchDepth;
bottomName = Low;
bottomValue = -100;
topName = High;
topValue = 0;
}
);
},
{
export = 0;
glyphname = _cap.unterlaenge;
lastChange = "2017-06-29 09:44:22 +0000";
layers = (
{
layerId = "E3DDE12C-3A5F-4385-A6FD-0C1D1DE2DDC5";
paths = (
{
closed = 0;
nodes = (
"0 272 LINE",
"0 192 OFFCURVE",
"6 130 OFFCURVE",
"-3 53 CURVE",
"-97 24 LINE",
"-85 -10 LINE",
"-47 -2 OFFCURVE",
"-9 0 OFFCURVE",
"29 0 CURVE SMOOTH",
"83 0 OFFCURVE",
"107 -4 OFFCURVE",
"147 -10 CURVE",
"166 7 LINE",
"168 33 LINE",
"66 57 LINE",
"69 131 OFFCURVE",
"63 194 OFFCURVE",
"63 272 CURVE"
);
}
);
width = 464;
}
);
},
{
export = 0;
glyphname = _part.bogenu;
lastChange = "2017-06-29 11:52:05 +0000";
layers = (
{
anchors = (
{
name = _connect;
position = "{109, 0}";
},
{
name = connect;
position = "{379, 0}";
}
);
background = {
hints = (
{
origin = "{0, 2}";
target = "{0, 3}";
type = Cap;
name = _cap.obenneukurz;
}
);
paths = (
{
closed = 1;
nodes = (
"406 452 LINE",
"344 452 LINE",
"323 0 LINE",
"385 0 LINE"
);
}
);
};
layerId = "E3DDE12C-3A5F-4385-A6FD-0C1D1DE2DDC5";
paths = (
{
closed = 1;
nodes = (
"108 106 LINE",
"298 443 LINE",
"243 390 LINE",
"292 390 OFFCURVE",
"333 339 OFFCURVE",
"333 245 CURVE SMOOTH",
"333 160 OFFCURVE",
"320 86 OFFCURVE",
"314 4 CURVE",
"334 -25 LINE",
"383 -22 OFFCURVE",
"425 -14 OFFCURVE",
"476 -2 CURVE",
"470 28 LINE",
"397 20 OFFCURVE",
"387 53 OFFCURVE",
"391 132 CURVE SMOOTH",
"394 180 OFFCURVE",
"402 229 OFFCURVE",
"402 277 CURVE SMOOTH",
"402 406 OFFCURVE",
"321 494 OFFCURVE",
"201 442 CURVE",
"252 494 LINE",
"103 159 LINE"
);
}
);
width = 477;
userData = {
PartSelection = {
crotchDepth = 2;
shoulderWidh = 2;
};
};
},
{
anchors = (
{
name = _connect;
position = "{109, 0}";
},
{
name = connect;
position = "{379, 0}";
}
);
associatedMasterId = "E3DDE12C-3A5F-4385-A6FD-0C1D1DE2DDC5";
layerId = "18EAB7CF-9E0B-40D4-B0D9-B4B59782CE99";
name = NarrowSholder;
paths = (
{
closed = 1;
nodes = (
"108 106 LINE",
"290 443 LINE",
"235 390 LINE",
"280 390 OFFCURVE",
"317 339 OFFCURVE",
"317 245 CURVE SMOOTH",
"317 158 OFFCURVE",
"304 84 OFFCURVE",
"298 -3 CURVE",
"318 -32 LINE",
"367 -29 OFFCURVE",
"409 -21 OFFCURVE",
"460 -9 CURVE",
"454 21 LINE",
"381 13 OFFCURVE",
"371 49 OFFCURVE",
"375 132 CURVE SMOOTH",
"378 180 OFFCURVE",
"386 229 OFFCURVE",
"386 277 CURVE SMOOTH",
"386 406 OFFCURVE",
"308 494 OFFCURVE",
"193 442 CURVE",
"244 494 LINE",
"103 159 LINE"
);
}
);
width = 477;
userData = {
PartSelection = {
crotchDepth = 2;
shoulderWidh = 1;
};
};
},
{
anchors = (
{
name = _connect;
position = "{109, 0}";
},
{
name = connect;
position = "{379, 0}";
}
);
associatedMasterId = "E3DDE12C-3A5F-4385-A6FD-0C1D1DE2DDC5";
layerId = "3FA632C3-4053-49EC-BADF-7344590C9B41";
name = LowCrotch;
paths = (
{
closed = 1;
nodes = (
"108 96 LINE",
"298 443 LINE",
"243 390 LINE",
"292 390 OFFCURVE",
"333 339 OFFCURVE",
"333 245 CURVE SMOOTH",
"333 158 OFFCURVE",
"320 85 OFFCURVE",
"314 -2 CURVE",
"334 -31 LINE",
"383 -28 OFFCURVE",
"425 -20 OFFCURVE",
"476 -8 CURVE",
"470 22 LINE",
"397 14 OFFCURVE",
"387 50 OFFCURVE",
"391 132 CURVE SMOOTH",
"394 180 OFFCURVE",
"402 229 OFFCURVE",
"402 277 CURVE SMOOTH",
"402 406 OFFCURVE",
"321 494 OFFCURVE",
"201 442 CURVE",
"252 494 LINE",
"103 149 LINE"
);
}
);
width = 477;
userData = {
PartSelection = {
crotchDepth = 1;
shoulderWidh = 2;
};
};
}
);
partsSettings = (
{
name = shoulderWidh;
bottomName = Low;
bottomValue = 0;
topName = High;
topValue = 100;
},
{
name = crotchDepth;
bottomName = Low;
bottomValue = -100;
topName = High;
topValue = 0;
}
);
},
